<?xml version="1.0" standalone="no"?>
<!DOCTYPE svg PUBLIC "-//W3C//DTD SVG 1.1//EN" "http://www.w3.org/Graphics/SVG/1.1/DTD/svg11.dtd" >
<!--
2013-9-30: Created.
-->
<svg>
<metadata>
Created by iconfont
</metadata>
<defs>

<font id="iconfont" horiz-adv-x="1024" >
  <font-face
    font-family="iconfont"
    font-weight="500"
    font-stretch="normal"
    units-per-em="1024"
    ascent="896"
    descent="-128"
  />
    <missing-glyph />
    
    <glyph glyph-name="x" unicode="x" horiz-adv-x="1001"
d="M281 543q-27 -1 -53 -1h-83q-18 0 -36.5 -6t-32.5 -18.5t-23 -32t-9 -45.5v-76h912v41q0 16 -0.5 30t-0.5 18q0 13 -5 29t-17 29.5t-31.5 22.5t-49.5 9h-133v-97h-438v97zM955 310v-52q0 -23 0.5 -52t0.5 -58t-10.5 -47.5t-26 -30t-33 -16t-31.5 -4.5q-14 -1 -29.5 -0.5
t-29.5 0.5h-32l-45 128h-439l-44 -128h-29h-34q-20 0 -45 1q-25 0 -41 9.5t-25.5 23t-13.5 29.5t-4 30v167h911zM163 247q-12 0 -21 -8.5t-9 -21.5t9 -21.5t21 -8.5q13 0 22 8.5t9 21.5t-9 21.5t-22 8.5zM316 123q-8 -26 -14 -48q-5 -19 -10.5 -37t-7.5 -25t-3 -15t1 -14.5
t9.5 -10.5t21.5 -4h37h67h81h80h64h36q23 0 34 12t2 38q-5 13 -9.5 30.5t-9.5 34.5q-5 19 -11 39h-368zM336 498v228q0 11 2.5 23t10 21.5t20.5 15.5t34 6h188q31 0 51.5 -14.5t20.5 -52.5v-227h-327z" />
    

    
    <glyph glyph-name="mima" unicode="&#59089;" d="M780.8 457.420308 665.6 457.420308 665.6 500.310154c0 72.310154-19.849846 193.299692-153.6 193.299692-138.870154 0-153.6-135.049846-153.6-193.299692l0-42.889846L243.2 457.420308 243.2 500.310154C243.2 689.750154 348.790154 812 512 812s268.8-122.249846 268.8-311.689846L780.8 457.420308zM588.8 142.579692C588.8 186.099692 554.220308 221.230769 512 221.230769s-76.8-35.131077-76.8-78.651077c0-29.459692 15.399385-54.468923 38.439385-67.820308l0-89.639385c0-21.740308 17.250462-39.699692 38.4-39.699692s38.4 17.959385 38.4 39.699692l0 89.639385C573.44 88.110769 588.8 113.12 588.8 142.579692zM896 300l0-393.609846c0-65.260308-51.869538-118.390154-115.2-118.390154L243.2-212c-63.291077 0-115.2 53.129846-115.2 118.390154L128 300c0 65.220923 51.869538 118.390154 115.2 118.390154l537.6 0C844.130462 418.390154 896 365.220923 896 300z"  horiz-adv-x="1024" />

    
    <glyph glyph-name="201" unicode="&#58892;" d="M878.848 383.285333c-18.488889 18.488889-44.231111 30.008889-72.704 30.008889l-7.907556 0 0 112.156444c0 74.524444-29.980444 141.824-79.416889 191.232-49.095111 49.095111-116.963556 79.729778-191.203556 79.729778-73.329778 0-140.003556-29.724444-189.127111-77.624889l-2.702222-2.104889c-48.810667-49.379556-79.701333-116.679111-79.701333-191.232l0-112.156444L248.462222 413.294222c-28.188444 0-54.272-11.52-73.045333-30.008889l0.284444 0-0.284444-0.284444c-18.204444-18.204444-30.037333-44.259556-30.037333-72.732444l0-377.628444c0-28.472889 11.804444-54.243556 30.037333-73.016889 18.773333-18.488889 44.856889-30.293333 73.045333-30.293333L806.115556-170.670222c26.936889 0 51.512889 9.984 69.944889 27.562667l2.759111 2.759111c19.114667 18.801778 30.606222 44.544 30.606222 73.016889L909.425778 310.24C909.454222 338.741333 897.962667 364.796444 878.848 383.285333L878.848 383.285333zM306.858667 518.595556 306.858667 518.595556c0 60.387556 24.832 115.427556 64.739556 155.335111l2.190222 2.503111c40.277333 38.542222 94.236444 62.264889 153.912889 62.264889 60.444444 0 115.427556-25.230222 155.335111-64.768 39.936-39.907556 64.398222-94.947556 64.398222-155.335111l0-104.618667L306.858667 413.976889 306.858667 518.595556 306.858667 518.595556zM862.919111-92.163556 862.919111-92.163556c0-5.432889-2.417778-10.609778-6.172444-14.392889l-1.365333-1.336889c-3.128889-2.759111-7.537778-4.522667-12.686222-4.522667L211.854222-112.416c-5.12 0-10.666667 2.104889-14.051556 5.859556C194.048-102.773333 192-97.596444 192-92.163556L192 335.015111c0 5.518222 2.076444 11.008 5.831111 14.392889l0 0c3.384889 3.470222 8.903111 6.200889 14.051556 6.200889l630.812444 0c5.802667 0 10.268444-2.702222 14.051556-6.200889 3.783111-4.124444 6.172444-8.874667 6.172444-14.392889L862.919111-92.163556 862.919111-92.163556zM527.587556 261.799111 527.587556 261.799111c-28.501333 0-54.272-11.264-72.732444-30.321778-19.086222-18.176-30.293333-44.202667-30.293333-72.704 0-27.904 11.207111-53.930667 30.293333-72.789333 12.743111-12.686222 29.098667-22.385778 46.961778-26.652444l0-52.736c0-14.563556 11.235556-25.742222 25.770667-25.742222 13.937778 0 25.144889 11.178667 25.144889 25.742222l0 52.736c18.488889 4.266667 34.56 13.966222 47.587556 26.652444 18.176 18.830222 30.264889 44.885333 30.264889 72.789333 0 28.501333-12.117333 54.556444-30.264889 72.704C581.233778 250.506667 555.491556 261.799111 527.587556 261.799111L527.587556 261.799111zM578.958222 107.260444 578.958222 107.260444c-12.856889-12.401778-29.980444-21.390222-49.664-21.390222l-1.706667 0-1.706667 0c-19.683556 0-37.660444 8.988444-50.488889 21.390222-13.226667 13.710222-20.508444 30.805333-20.508444 51.370667 0 20.48 7.281778 38.940444 20.508444 52.224 13.283556 12.8 31.687111 21.333333 52.195556 21.333333 19.683556 0 38.513778-8.533333 51.370667-21.333333 13.226667-13.283556 21.333333-31.744 21.333333-52.224C600.291556 138.037333 592.184889 120.942222 578.958222 107.260444L578.958222 107.260444z"  horiz-adv-x="1024" />

    
    <glyph glyph-name="password" unicode="&#58954;" d="M811.1 526h-79.8c0 128.3-97.9 226.2-222.9 226.2s-222.9-98-222.9-226.2h-79.8c0 153.9 135.8 306.1 302.7 306.1 166.9-0.1 302.7-152.2 302.7-306.1v0zM858.3 394.8c0 44.1-35.8 79.8-79.8 79.8h-532.9c-44.1 0-79.8-35.8-79.8-79.8v-379c0-44.1 35.8-79.8 79.8-79.8h532.9c44.1 0 79.8 35.8 79.8 79.8v379zM576.1 98.5c0-33.1-26.8-59.9-59.9-59.9h-8.5c-33.1 0-59.9 26.8-59.9 59.9l-0 162.4c0 33.1 26.8 59.9 59.9 59.9h8.5c33.1 0 59.9-26.8 59.9-59.9v-162.4zM576.1 98.5z"  horiz-adv-x="1024" />

    
    <glyph glyph-name="xin" unicode="&#58933;" d="M700.856275 740.457458c-74.768891 0-144.295384-72.696696-190.046381-127.260405C465.073224 667.773042 395.563104 740.457458 320.754305 740.457458c-134.789892 0-244.443291-105.780185-244.443291-235.799424 0-77.56968 39.277562-131.98808 70.844511-175.712931 91.752704-126.998439 322.464249-285.038872 332.234777-291.701618 9.410324-6.414083 20.424168-9.629311 31.401174-9.629311 11.005658 0 21.998013 3.215228 31.397081 9.629311 9.782807 6.662747 240.514819 164.703179 332.23887 291.701618 31.586392 43.723827 70.873164 98.143251 70.873164 175.712931C945.299567 634.678296 835.645145 740.457458 700.856275 740.457458L700.856275 740.457458zM700.856275 740.457458"  horiz-adv-x="1024" />

    
    <glyph glyph-name="shangpinfenlei" unicode="&#58887;" d="M537.0797-59.144796c-61.649082 0-121.460306 12.244882-177.772846 36.393885-54.369282 23.316032-103.19122 56.688093-145.109935 99.190093-41.903366 42.487673-74.803683 91.962481-97.78407 147.051147-23.789823 57.028854-35.852556 117.597325-35.852556 180.023096s12.062733 122.993219 35.852556 180.022073c22.981411 55.088666 55.880705 104.563474 97.78407 147.051147 41.917692 42.502 90.740654 75.874061 145.109935 99.190093 56.311517 24.150026 116.123764 36.393885 177.772846 36.393885s121.460306-12.244882 177.772846-36.393885c54.369282-23.316032 103.19122-56.688093 145.109935-99.190093 41.903366-42.487673 74.803683-91.962481 97.78407-147.051147 23.789823-57.028854 35.852556-117.596302 35.852556-180.022073s-12.062733-122.993219-35.852556-180.023096c-22.980387-55.088666-55.879682-104.564497-97.78407-147.051147-41.918715-42.500976-90.740654-75.874061-145.109935-99.190093C658.540006-46.899914 598.728782-59.144796 537.0797-59.144796zM537.0797 835.472462c-234.797607 0-425.819199-193.775308-425.819199-431.959036 0-238.183727 191.021591-431.959036 425.819199-431.959036S962.898899 165.330722 962.898899 403.513426C962.898899 641.697153 771.877307 835.472462 537.0797 835.472462zM476.107023 647.671215 338.606393 647.671215c-25.244964 0-45.814442-20.569478-45.814442-45.816488l0-137.498584c0-25.243941 20.570501-45.814442 45.814442-45.814442l137.448442 0c25.296129 0 45.864584 20.570501 45.864584 45.814442L521.919419 601.854726C521.920442 627.10276 501.350964 647.671215 476.107023 647.671215L476.107023 647.671215zM489.385445 465.999572c0-8.244778-6.724145-14.921851-14.923898-14.921851L340.250846 451.077721c-8.246825 0-14.923898 6.725168-14.923898 14.921851L325.326948 600.21232c0 8.247848 6.725168 14.924921 14.923898 14.924921l134.210701 0c8.247848 0 14.923898-6.725168 14.923898-14.924921L489.385445 465.999572 489.385445 465.999572zM735.811904 647.671215 598.314343 647.671215c-25.244964 0-45.814442-20.569478-45.814442-45.816488l0-198.603267c0-25.243941 20.568455-45.814442 45.814442-45.814442l137.446395 0c25.298176 0 45.86663 20.567431 45.86663 45.865607L781.627369 601.854726C781.628392 627.10276 761.058914 647.671215 735.811904 647.671215L735.811904 647.671215zM749.477135 404.666692c0-8.333806-6.757914-15.07637-14.992459-15.07637L599.644641 389.590322c-8.28571 0-14.994506 6.79373-14.994506 15.07637L584.650135 600.444611c0 8.329712 6.757914 15.0733 14.994506 15.0733l134.840034 0c8.284687 0 14.992459-6.791683 14.992459-15.0733L749.477135 404.666692 749.477135 404.666692zM476.107023 388.01443 338.606393 388.01443c-25.244964 0-45.814442-20.569478-45.814442-45.817512l0-137.495514c0-25.244964 20.570501-45.814442 45.814442-45.814442l137.448442 0c25.296129 0 45.864584 20.519336 45.864584 45.814442L521.919419 342.198965C521.920442 367.444952 501.350964 388.01443 476.107023 388.01443L476.107023 388.01443zM489.764068 205.982584c0-8.28571-6.754844-14.990413-14.989389-14.990413L339.938738 190.992171c-8.284687 0-14.990413 6.757914-14.990413 14.990413L324.948325 340.817502c0 8.283664 6.753821 14.990413 14.990413 14.990413l134.834918 0c8.284687 0 14.989389-6.755868 14.989389-14.990413L489.764068 205.982584 489.764068 205.982584zM735.811904 326.860628 598.314343 326.860628c-25.244964 0-45.814442-20.571525-45.814442-45.817512l0-76.339666c0-25.248034 20.568455-45.817512 45.814442-45.817512l137.446395 0c25.298176 0 45.816488 20.519336 45.86663 45.765323l0 76.391854C781.628392 306.290127 761.058914 326.860628 735.811904 326.860628L735.811904 326.860628zM749.477135 205.854671c0-8.185426-6.757914-14.81645-14.992459-14.81645L599.644641 191.03822c-8.28571 0-14.994506 6.677073-14.994506 14.81645l0 74.037227c0 8.185426 6.757914 14.817474 14.994506 14.817474l134.840034 0c8.284687 0 14.992459-6.680143 14.992459-14.817474L749.477135 205.854671 749.477135 205.854671z"  horiz-adv-x="1024" />

    
    <glyph glyph-name="arrowsgright" unicode="&#58889;" d="M857.707 400.991l-459.762 467.495c-7.132 7.251-18.794 7.35-26.048 0.217-7.254-7.132-7.35-18.795-0.217-26.048l446.953-454.471-452.775-452.776c-7.193-7.193-7.193-18.855 0-26.048 3.597-3.597 8.311-5.395 13.025-5.395s9.429 1.799 13.025 5.395l465.69 465.69c7.152 7.152 7.2 18.731 0.109 25.941z"  horiz-adv-x="1024" />

    
    <glyph glyph-name="android" unicode="&#58895;" d="M167.256328 549.030637c-40.536228 0-73.515341-32.738635-73.515341-72.980151l0-242.830561c0-40.536228 32.979112-73.516364 73.515341-73.516364 19.674085 0 38.068014 7.664563 51.794643 21.582551 13.634532 13.824867 21.144576 32.267914 21.144576 51.933813l0 242.830561C240.195547 516.292002 207.475332 549.030637 167.256328 549.030637zM209.496361 233.218902c0-24.009833-18.553565-42.817178-42.240033-42.817178-23.608697 0-42.816155 19.208481-42.816155 42.817178l0 242.830561c0 23.313985 19.207457 42.280966 42.816155 42.280966 23.291472 0 42.240033-18.96698 42.240033-42.280966L209.496361 233.218902zM680.167071 782.296355l32.763195 60.446697c2.967588 5.28947 3.832282 11.419074 2.435469 17.286712-1.483794 6.232958-5.505387 11.623735-11.031241 14.789844l-0.777713 0.446162-0.825808 0.352017c-11.447726 4.889357-24.633027 0.632403-30.668487-9.904581L637.84415 802.998863c-33.717939 13.038968-69.515237 19.638269-106.624413 19.638269-37.109176 0-72.907497-6.599302-106.624413-19.638269l-34.062793 62.438051-0.155543 0.278339c-6.03546 10.534937-19.219737 14.790868-30.668487 9.902534l-0.823761-0.352017-0.777713-0.445138c-11.133571-6.378268-14.96176-20.726044-8.597819-32.074509l32.744775-60.412928c-36.069497-21.059642-66.491367-49.691749-88.573291-83.504856-25.703405-39.35738-39.288818-84.656075-39.288818-130.99752l0-15.349593 553.081651 0 0 15.349593c0 46.298466-13.551644 91.589998-39.189557 130.978077C746.290047 732.598466 716.028836 761.222387 680.167071 782.296355zM285.668205 583.181435c5.640464 74.748425 52.200896 142.500505 124.348076 179.356924l11.641131 5.947456 2.297322 1.019213c33.541931 14.885012 69.63087 22.431895 107.265002 22.431895 37.634132 0 73.723072-7.546883 107.263979-22.431895l2.873444-1.27504 11.029194-5.67321c71.830979-36.944424 118.188796-104.70162 123.809817-179.376367L285.668205 583.180412zM256.655428 146.813996c0-20.763906 8.03807-40.237423 22.63451-54.832839 14.595416-14.59644 34.068933-22.63451 54.832839-22.63451l26.501584 0 0.50756-112.837928c0-40.536228 32.720216-73.515341 72.939219-73.515341 40.536228 0 73.515341 32.979112 73.515341 73.515341L507.58648 69.346647l47.267537 0 0-112.837928c0-40.536228 32.979112-73.515341 73.515341-73.515341s73.515341 32.979112 73.515341 73.515341L701.884698 69.346647l27.010167 0c42.397622 0 76.891228 34.751478 76.891228 77.467349L805.786093 538.286945 256.655428 538.286945 256.655428 146.813996zM287.354614 507.587759l487.73127 0L775.085884 146.813996c0-25.78834-20.721951-46.768163-46.192042-46.768163l-57.709353 0 0-143.537114c0-23.608697-19.207457-42.816155-42.816155-42.816155s-42.816155 19.207457-42.816155 42.816155L585.55218 100.045833 476.887294 100.045833l0-143.537114c0-23.608697-19.207457-42.816155-42.816155-42.816155-23.291472 0-42.240033 19.207457-42.240033 42.884716l-0.644683 143.467529-57.063647 0c-25.78834 0-46.768163 20.979824-46.768163 46.768163L287.354614 507.587759zM412.047544 706.186933c-11.856026 0-21.446451-10.16757-21.446451-22.023596 0-11.855002 9.591449-22.023596 21.446451-22.023596 12.432147 0 22.023596 10.16757 22.023596 22.023596C434.07114 696.019363 424.479691 706.186933 412.047544 706.186933zM650.39193 706.186933c-12.432147 0-22.023596-10.16757-22.023596-22.023596 0-11.855002 9.591449-22.023596 22.023596-22.023596 11.855002 0 21.446451 10.16757 21.446451 22.023596C671.838382 696.019363 662.246933 706.186933 650.39193 706.186933zM948.145381 527.860479c-13.827937 13.651928-32.273031 21.170159-51.938929 21.170159-40.219004 0-72.938196-32.738635-72.938196-72.980151l0-242.830561c0-40.536228 32.720216-73.516364 72.938196-73.516364 40.536228 0 73.516364 32.980135 73.516364 73.516364l0 242.830561C969.722816 495.723547 962.059276 514.123616 948.145381 527.860479zM939.02363 233.218902c0-23.608697-19.208481-42.817178-42.817178-42.817178-23.291472 0-42.23901 19.208481-42.23901 42.817178l0 242.830561c0 23.313985 18.948561 42.280966 42.23901 42.280966 24.009833 0 42.817178-18.571984 42.817178-42.280966L939.02363 233.218902z"  horiz-adv-x="1024" />

    
    <glyph glyph-name="apple" unicode="&#58896;" d="M377.736087-120.192174c-66.308195 0-128.782062 52.529377-190.988846 160.591535l-0.066515 0.116657c-29.260417 51.881624-51.544957 103.517655-66.23554 153.473417-14.95869 50.870598-22.543436 101.689007-22.543436 151.044088 0 46.338375 5.856381 89.149413 17.405415 127.244033 11.594059 38.239929 29.258371 72.864518 52.505841 102.910834 47.151903 60.395532 107.631346 90.991364 179.800016 90.991364 30.095435 0 65.668629-5.993504 108.751866-18.322297 18.86158-5.463432 33.440623-9.256828 44.710294-11.856026l0.055259 2.740414c1.220804 61.428048 17.634636 115.322515 48.7851 160.186306 31.423687 45.211714 84.156702 76.685543 156.738787 93.554746l15.134699 3.517103 3.332908-15.176654c0.428765-1.953492 0.864694-3.745301 1.266853-5.402033 0.714268-2.942005 1.388627-5.721305 1.826602-8.482185l0.190335-1.194198 0-1.209548c0-1.463328 0.11768-2.959402 0.25378-4.691859 0.163729-2.076288 0.348947-4.430916 0.348947-7.099698 0-25.930579-6.113231-54.816466-18.168802-85.85846l-0.054235-0.1361c-12.494569-31.281447-32.114418-60.425208-58.31208-86.62287-11.254322-11.254322-22.655999-20.738323-34.128285-28.399817 39.820937 12.904914 73.172533 19.186991 101.81078 19.186991 49.884131 0 95.133707-13.8351 134.490064-41.12156 21.375843-14.650675 43.128263-35.523051 64.586994-61.989843l9.475815-11.686157-11.493775-9.707083c-30.237675-25.536606-51.349505-47.324842-64.539922-66.61007l-0.060375-0.085958c-23.652699-34.076096-35.645848-72.236208-35.645848-113.420189 0-45.354977 12.785188-86.707804 37.999452-122.910331 24.955368-35.792181 53.601802-58.824757 85.140099-68.455091l14.829753-4.52813-4.677533-14.783705c-15.862269-50.133817-40.908712-101.092419-74.437339-151.455457-26.160823-39.830147-52.940746-70.311369-79.592756-90.592274-27.89942-21.228487-56.476269-31.993668-84.938508-31.993668-21.301142 0-49.179073 6.275937-87.732134 19.750833l-0.303922 0.109494c-31.40936 11.725042-60.370972 17.923208-83.754542 17.923208-21.875217 0-48.110741-6.16849-77.976956-18.3356C427.77269-113.055636 399.584698-120.192174 377.736087-120.192174zM213.389018 55.65174c28.369118-49.2681 56.851822-86.447884 84.659145-110.50479 26.942629-23.308869 53.008284-34.639938 79.687924-34.639938 17.780969 0 42.012859 6.348592 72.02336 18.869766l0.11768 0.048095c33.587979 13.688767 63.741743 20.629853 89.623203 20.629853 27.353998 0 59.09491-6.66377 94.336552-19.805068 34.637892-12.096503 59.974953-17.978467 77.453023-17.978467 44.768623 0 91.503017 36.603663 138.906653 108.792798l0.054235 0.081864c28.817326 43.279712 51.007721 86.871533 66.085114 129.788995-32.301683 13.629415-61.363579 38.759769-86.556355 74.892711-28.873608 41.457204-43.512003 88.712461-43.512003 140.462079 0 47.542806 13.82589 91.577718 41.094954 130.881886 12.942777 18.910699 32.129768 39.502689 58.443064 62.689784-16.381086 18.766412-32.682353 33.753755-48.585555 44.654013-34.18866 23.702841-73.553203 35.697013-117.066229 35.697013-26.125007 0-58.820664-6.486738-97.17725-19.280112-39.84959-13.849426-69.916373-20.87033-89.37454-20.87033-15.190981 0-43.234687 5.983271-85.732593 18.292622-40.250726 11.518335-73.060993 17.124006-100.259448 17.124006-63.104223 0-113.989147-25.883507-155.560962-79.131245-42.089607-54.402027-63.451124-125.517715-63.451124-211.316823C128.600937 251.487987 156.335604 156.829094 213.389018 55.65174zM697.963389 858.611461c-56.82624-15.691377-98.108458-41.620933-122.835629-77.199243-24.701588-35.57524-38.965453-77.873602-42.499953-125.924991 16.797571 1.981121 30.404474 4.526083 40.59251 7.600095 18.798135 6.325056 38.158065 19.35993 57.544601 38.746466 23.217794 23.217794 40.539298 48.866964 51.484581 76.234265 10.655687 27.456329 16.058744 52.581566 16.058744 74.67577 0 1.462305-0.11768 2.959402-0.25378 4.691859C698.024787 857.818399 697.994088 858.210325 697.963389 858.611461z"  horiz-adv-x="1024" />

    
    <glyph glyph-name="appreciate" unicode="&#58897;" d="M106.666667 62.144c-11.776 0-21.333333 9.536-21.333333 21.333333L85.333333 488.533333c0 11.776 9.557333 21.333333 21.333333 21.333333s21.333333-9.557333 21.333333-21.333333l0-405.056C128 71.68 118.442667 62.144 106.666667 62.144zM836.992 511.104l-177.472 0c9.194667 38.485333 22.378667 111.530667 13.098667 186.666667-6.357333 51.669333-35.242667 89.877333-79.274667 104.853333-32.853333 11.157333-67.2 6.186667-85.418667-12.352-22.357333-22.528-33.344-65.578667-44.970667-111.146667-7.850667-30.784-15.978667-62.634667-26.496-80.341333-33.770667-56.896-119.338667-84.224-120.192-84.501333-2.197333-0.682667-4.010667-1.92-5.781333-3.178667L191.786667 511.104c-11.776 0-21.333333-9.557333-21.333333-21.333333l0-406.293333c0-11.797333 9.557333-21.333333 21.333333-21.333333l119.530667 0c19.648-10.24 126.890667-63.445333 237.354667-63.445333l199.637333 0c34.752 0 85.781333 20.032 103.552 48.938667 19.434667 32.256 65.258667 350.293333 65.258667 388.586667C917.12 482.624 870.464 511.104 836.992 511.104zM815.445333 69.824c-8.192-13.290667-43.925333-28.458667-67.114667-28.458667L548.693333 41.365333c-108.544 0-219.114667 59.349333-220.202667 59.968-2.944 1.578667-6.08 2.218667-9.237333 2.346667-1.792 0.490667-3.562667 1.130667-5.525333 1.130667L213.12 104.810667 213.12 468.437333l100.586667 0c5.013333 0 9.408 1.984 13.056 4.885333 0.746667 0.149333 1.450667 0 2.197333 0.213333 4.138667 1.301333 101.973333 32.341333 144.192 103.466667 13.653333 22.997333 22.144 56.32 31.146667 91.584 9.258667 36.266667 19.733333 77.354667 33.941333 91.690667 4.928 5.034667 22.122667 8.512 41.365333 1.962667 16.405333-5.589333 44.8-22.037333 50.666667-69.674667 12.010667-97.664-18.624-195.306667-18.944-196.288-2.090667-6.485333-0.938667-13.589333 3.093333-19.072 4.010667-5.504 10.410667-8.768 17.237333-8.768l205.333333 0c12.864 0 37.461333-12.544 37.461333-32.213333C874.453333 394.837333 828.266667 96.192 815.445333 69.824z"  horiz-adv-x="1024" />

    
    <glyph glyph-name="arrowfull" unicode="&#58900;" d="M408.991951 311.498756 169.582303 72.080921l-0.983397 165.420517c-0.064468 11.446703-9.365298 20.677948-20.795629 20.677948-0.040932 0-0.080841 0-0.121773 0-11.487635-0.064468-20.742417-9.43079-20.675902-20.920472l1.396813-235.735979 235.769748-1.421372c0.040932 0 0.080841 0 0.121773 0 11.43033 0 20.723997 9.228175 20.797675 20.674878 0.064468 11.480472-9.188266 20.844747-20.675902 20.920472l-165.398004 0.99977 239.384066 239.391229c8.124028 8.124028 8.124028 21.285792 0 29.410843C430.27672 319.618691 417.114956 319.618691 408.991951 311.498756zM599.767949 452.092841c5.322216 0 10.643408 2.030239 14.706957 6.091742l239.383042 239.367693 1.00898-165.413354c0.072655-11.440563 9.365298-20.668739 20.795629-20.668739 0.041956 0 0.081864 0 0.12996 0 11.479449 0.070608 20.742417 9.438976 20.667715 20.928658l-1.445932 235.743142-235.704257 1.431605c-0.048095 0-0.089028 0-0.12996 0-11.43033 0-20.723997-9.228175-20.797675-20.668739-0.073678-11.489682 9.188266-20.852934 20.667715-20.927635l165.407214-1.00898L585.064063 487.592356c-8.124028-8.115841-8.124028-21.284769 0-29.40675C589.127611 454.123081 594.448804 452.092841 599.767949 452.092841zM875.785354 258.179386c-0.040932 0-0.080841 0-0.122797 0-11.43033 0-20.732184-9.231245-20.795629-20.677948l-0.983397-165.420517L614.474906 311.498756c-8.124028 8.119935-21.285792 8.119935-29.410843 0-8.124028-8.125051-8.124028-21.286816 0-29.410843l239.384066-239.391229-165.389818-0.99977c-11.487635-0.075725-20.74037-9.44-20.675902-20.920472 0.073678-11.446703 9.367345-20.674878 20.797675-20.674878 0.040932 0 0.081864 0 0.121773 0l235.761562 1.421372 1.396813 235.735979C896.525724 248.747573 887.271966 258.114918 875.785354 258.179386zM438.400748 487.592356c8.124028-8.119935 8.124028-21.284769 0-29.40675-4.062526-4.062526-9.382695-6.091742-14.703887-6.091742-5.322216 0-10.643408 2.030239-14.70491 6.091742L169.607886 697.560462l-1.00898-165.420517c-0.072655-11.440563-9.365298-20.668739-20.795629-20.668739-0.040932 0-0.080841 0-0.12996 0-11.479449 0.070608-20.741393 9.438976-20.667715 20.928658l1.445932 235.743142 235.712443 1.431605c0.049119 0 0.089028 0 0.12996 0 11.43033 0 20.723997-9.228175 20.797675-20.668739 0.073678-11.489682-9.188266-20.852934-20.667715-20.927635l-165.406191-1.00898L438.400748 487.592356z"  horiz-adv-x="1024" />

    
    <glyph glyph-name="arrowsgleft" unicode="&#58907;" d="M166.293 367.009l459.762-467.495c7.132-7.251 18.794-7.35 26.048-0.217 7.254 7.132 7.35 18.795 0.217 26.048l-446.953 454.471 452.775 452.776c7.193 7.193 7.193 18.855 0 26.048-3.597 3.597-8.311 5.395-13.025 5.395s-9.429-1.799-13.025-5.395l-465.69-465.69c-7.152-7.152-7.2-18.731-0.109-25.941z"  horiz-adv-x="1024" />

    
    <glyph glyph-name="congzi" unicode="&#58908;" d="M512 896C229.229714 896 0 666.770286 0 384S229.229714-128 512-128 1024 101.229714 1024 384 794.770286 896 512 896zM514.500156-81.454545c-257.529351 0-466.292364 209.148675-466.292364 467.116883 0 257.981506 208.763013 467.116883 466.292364 467.116883 257.516052 0 466.292364-209.135377 466.292364-467.116883C980.779221 127.69413 772.016208-81.454545 514.500156-81.454545zM472.103896 636.675325 512 661.61039 553.558442 606.753247 531.948052 588.467532 530.285714 580.155844 784.623377 580.155844 784.623377 541.922078 247.688312 541.922078 247.688312 576.831169 512 583.480519ZM455.480519 550.233766 284.25974 384l28.25974-31.584416c0 0 304.207792 26.597403 370.701299 14.961039l11.636364 0 28.25974-36.571429 38.233766 23.272727L631.688312 505.350649l-36.571429-18.285714 53.194805-74.805195c0 0-156.25974 0-287.584416-14.961039L512 541.922078 455.480519 550.233766zM415.584416 375.688312l0-79.792208c0 0-26.597403-121.350649-177.87013-152.935065L259.324675 111.376623c0 0 174.545455 48.207792 189.506494 166.233766l6.649351 98.077922L415.584416 375.688312zM570.181818 375.688312 570.181818 174.545455c0 0-1.662338-61.506494 61.506494-63.168831l91.428571 0c0 0 74.805195 0 78.12987 121.350649l-51.532468 23.272727c0 0 28.25974-91.428571-46.545455-103.064935l-63.168831 0c0 0-36.571429 3.324675-33.246753 73.142857l1.662338 149.61039L570.181818 375.688312zM417.246753 565.194805l139.636364 0 0-23.272727-139.636364 0 0 23.272727Z"  horiz-adv-x="1024" />

    
    <glyph glyph-name="attentionforbid" unicode="&#58909;" d="M605.376 405.472l61.696-59.04C670.016 358.56 672 371.008 672 384c0 88.224-71.776 160-160 160-15.424 0-30.016-2.88-44.16-6.976l61.44-58.784C566.944 471.36 596.832 442.528 605.376 405.472zM556.256 231.008l-61.376 58.752c-37.792 6.848-67.84 35.744-76.32 72.96l-61.632 58.944C353.984 409.504 352 397.024 352 384c0-88.224 71.776-160 160-160C527.456 224 542.08 226.912 556.256 231.008zM178.944 759.136C166.144 771.328 145.888 770.88 133.696 758.112 121.472 745.344 121.92 725.088 134.688 712.864l736-704C876.896 2.944 884.832 0 892.8 0c8.448 0 16.832 3.328 23.136 9.888 12.224 12.768 11.744 33.024-0.992 45.248L178.944 759.136zM512 96c-169.28 0-335.328 113.568-414.88 283.936-0.16 0.608-0.352 1.152-0.544 1.728-0.064 0.544-0.224 0.992-0.288 1.312C96.256 383.328 96 383.776 96 384.224L96 384.64c0 0.736 0.448 1.472 0.544 2.208 0.128 0.448 0.352 0.832 0.48 1.28 29.728 64.128 72 120.256 122.144 165.312L172.864 597.696c-55.488-50.656-102.08-113.152-134.624-184.256-1.056-2.112-1.792-4.096-2.272-5.888-0.256-0.544-0.448-1.056-0.64-1.6-1.76-5.056-1.76-8.48-1.632-7.712-0.8-3.744-1.6-11.2-1.6-11.2-0.224-2.24-0.192-4.032 0.064-6.272 0 0 0.704-13.472 1.056-14.816l4.544-13.632C126.4 158.656 316.992 30.24 512 30.24c69.824 0 138.976 17.792 203.104 47.936l-49.856 48.576C616.128 106.88 564.224 96 512 96zM992 383.904c0 5.792-0.992 10.592-1.28 11.136-0.192 2.912-1.152 8.096-2.08 10.816-0.256 0.672-0.544 1.376-0.832 2.08-0.48 1.568-1.024 3.104-1.6 4.32C897.664 605.92 707.104 736 512 736c-69.76 0-138.88-16.864-203.008-47.072l49.856-47.648C407.968 661.12 459.808 672 512 672c169.76 0 336.192-114.048 414.752-283.68 0.096-0.32 0.16-0.608 0.256-0.8 0.064-0.288 0.16-0.608 0.256-0.864 0.16-1.28 0.32-2.496 0.48-3.168-0.16-0.672-0.256-1.28-0.384-1.952-0.032-0.16-0.096-0.32-0.128-0.48-0.128-0.416-0.288-0.864-0.416-1.376-29.696-64-71.872-120.032-121.952-165.056l46.336-44.32c55.328 50.496 101.728 112.672 134.016 183.36 1.376 2.496 2.24 4.832 2.848 6.912 0.256 0.608 0.48 1.184 0.672 1.76 1.536 4.48 1.856 8.352 1.728 8.352 0 0 0-0.032-0.032-0.032C991.04 373.728 992 378.336 992 383.904z"  horiz-adv-x="1024" />

    
    <glyph glyph-name="cart" unicode="&#58914;" d="M352.512 64c-35.36 0-64-28.64-64-64s28.64-64 64-64 64 28.64 64 64S387.872 64 352.512 64L352.512 64zM800.512 64c-35.36 0-64-28.64-64-64s28.64-64 64-64 64 28.64 64 64S835.872 64 800.512 64L800.512 64zM864 96 344.224 96c-46.112 0-86.656 36.48-92.288 83.04l-54.272 382.08-30.88 178.56C164.864 755.264 150.656 768 136.768 768L96 768C78.336 768 64 782.336 64 800s14.336 32 32 32l40.768 0c46.688 0 87.68-36.48 93.344-83.04l30.816-177.888 54.496-383.712C317.216 172.512 330.656 160 344.224 160L864 160c17.696 0 32-14.304 32-32S881.696 96 864 96zM384.224 224c-16.608 0-30.656 12.8-31.872 29.664-1.312 17.632 11.936 32.96 29.536 34.24l434.112 32c15.936 0.096 29.376 12.608 31.136 26.848l50.4 288.384c1.28 10.752-1.696 22.528-8.128 29.824C885.28 669.632 880.096 672 874.048 672L320 672C302.336 672 288 686.336 288 704s14.336 32 32 32l554.048 0c24.448 0 46.912-10.144 63.264-28.608 18.688-21.088 27.264-50.816 23.52-81.632l-50.432-288.416C904.96 292.48 864.448 256 818.336 256l-431.744-31.904C385.792 224.032 384.992 224 384.224 224z"  horiz-adv-x="1024" />

    
    <glyph glyph-name="city" unicode="&#58919;" d="M511.743662 26.318668c-5.697769 0-11.139711 2.362814-15.026228 6.526647-12.138458 12.974499-297.224402 319.763744-297.224402 487.031329 0 172.185594 140.070152 312.27212 312.248583 312.27212s312.25677-140.086525 312.25677-312.27212c0-167.267585-285.09106-474.057853-297.226448-487.030305C522.88235 28.680459 517.441431 26.318668 511.743662 26.318668zM511.743662 790.997528c-149.480476 0-271.096325-121.617895-271.096325-271.119861 0-130.844024 212.120119-376.60124 271.096325-442.391642 58.975183 65.806775 271.105534 311.626413 271.105534 442.391642C782.849196 669.381679 661.225161 790.997528 511.743662 790.997528zM936.999019-64.980711l-850.520947 0c-7.330966 0-14.107299 3.903913-17.785062 10.238179-3.689019 6.335289-3.724835 14.161534-0.090051 20.527522l130.513496 228.989321c5.634324 9.870812 18.205641 13.295817 28.065196 7.68503 9.872858-5.624091 13.31219-18.193361 7.682983-28.064172l-112.975051-198.22669 779.070638 0-116.955712 197.952444c-5.783727 9.78997-2.536776 22.390963 7.234775 28.178783 9.740852 5.785773 22.39301 2.538823 28.195156-7.248078l135.280056-228.993414c3.761674-6.363941 3.823072-14.240329 0.157589-20.656459C951.209672-61.024609 944.393429-64.980711 936.999019-64.980711zM511.743662 387.521197c-66.200748 0-120.066563 53.862745-120.066563 120.072703 0 66.228377 53.865815 120.090099 120.066563 120.090099 66.208934 0 120.073726-53.864792 120.073726-120.090099C631.816365 441.383942 577.953619 387.521197 511.743662 387.521197zM511.743662 586.534809c-43.512003 0-78.915327-35.407418-78.915327-78.94091 0-43.51098 35.403325-78.923514 78.915327-78.923514 43.518143 0 78.922491 35.412534 78.922491 78.923514C590.666152 551.127392 555.262828 586.534809 511.743662 586.534809z"  horiz-adv-x="1024" />

    
    <glyph glyph-name="cny" unicode="&#58921;" d="M562.560094 448.000007 819.075814 448C836.748446 448 851.074945 433.676998 851.074945 416 851.074945 398.326888 836.754584 384 819.075814 384L543.537473 384 543.537473 256 543.537473 256 820.075814 256C837.748446 256 852.074945 241.676998 852.074945 224 852.074945 206.326888 837.754584 192 820.075814 192L543.537473 192 543.537473-31.767301C543.537473-49.44065 529.21447-63.767729 511.537473-63.767729 493.864361-63.767729 479.537473-49.439492 479.537473-31.767301L479.537473 192 204.074077 192C186.401444 192 172.074945 206.323002 172.074945 224 172.074945 241.673112 186.395306 256 204.074077 256L479.537473 256 479.537473 384 203.074077 384C185.401444 384 171.074945 398.323002 171.074945 416 171.074945 433.673112 185.395306 448 203.074077 448L461.410502 448 227.787783 781.647822C217.653764 796.1207 221.171235 816.068623 235.651384 826.207732 250.12835 836.344613 270.076803 832.833436 280.213514 818.356713L511.985296 487.352305 743.757078 818.356713C753.893788 832.833436 773.842241 836.344613 788.319207 826.207732 802.799356 816.068623 806.316827 796.1207 796.182809 781.647822L562.560094 448.000007Z"  horiz-adv-x="1024" />

    
    <glyph glyph-name="codee" unicode="&#58922;" d="M85.333333 725.333333l85.333333 0 0-554.666667-85.333333 0 0 554.666667ZM853.333333 725.333333l85.333333 0 0-554.666667-85.333333 0 0 554.666667ZM768 725.333333l42.666667 0 0-554.666667-42.666667 0 0 554.666667ZM597.333333 725.333333l85.333333 0 0-554.666667-85.333333 0 0 554.666667ZM512 725.333333l42.666667 0 0-554.666667-42.666667 0 0 554.666667ZM213.333333 725.333333l85.333333 0 0-554.666667-85.333333 0 0 554.666667ZM341.333333 725.333333l42.666667 0 0-554.666667-42.666667 0 0 554.666667ZM426.666667 725.333333l42.666667 0 0-554.666667-42.666667 0 0 554.666667ZM213.333333 128l85.333333 0 0-85.333333-85.333333 0 0 85.333333ZM341.333333 128l42.666667 0 0-85.333333-42.666667 0 0 85.333333ZM426.666667 128l128 0 0-85.333333-128 0 0 85.333333ZM597.333333 128l42.666667 0 0-85.333333-42.666667 0 0 85.333333ZM682.666667 128l128 0 0-85.333333-128 0 0 85.333333ZM853.333333 128l85.333333 0 0-85.333333-85.333333 0 0 85.333333ZM85.333333 128l85.333333 0 0-85.333333-85.333333 0 0 85.333333Z"  horiz-adv-x="1024" />

    
    <glyph glyph-name="codev" unicode="&#58923;" d="M41.796232 626.206877C43.050108 650.344003 43.802435 674.481131 45.620556 698.492872 47.940229 728.52322 72.95507 752.660348 103.048112 754.603857 129.692993 756.359284 156.525956 756.735447 183.04545 759.619364 289.06073 771.029642 387.0512 805.887416 477.016858 863.189585 495.260764 874.787945 514.131609 878.549575 534.695188 871.653254 540.149553 869.772437 545.478531 866.951215 550.305955 863.816523 630.491374 812.658351 717.573116 779.430617 811.300404 764.007932 846.722422 758.114712 882.520605 755.418876 918.444174 754.917326 956.373947 754.353081 981.138012 729.463627 983.771153 691.408468 987.344702 640.939928 986.843151 590.596775 982.07842 540.316317 965.464553 365.77667 907.535446 207.600118 794.184986 71.93065 724.845601-11.138685 640.459694-74.772929 541.779592-119.348249 523.034135-127.811918 504.47676-127.373061 485.668607-118.72131 396.392582-78.283786 318.777609-21.733942 252.886386 50.740134 167.183909 145.157053 109.819047 255.184741 75.838986 377.688501 53.331898 458.939716 42.736639 541.946358 41.796232 626.206877L41.796232 626.206877 41.796232 626.206877ZM107.812844 691.471161C107.185905 679.559332 106.182804 667.898278 105.869335 656.111838 104.239295 597.743873 107.75015 539.689378 117.279613 482.011048 132.451522 390.039186 161.290688 302.643975 207.307966 221.204679 278.08931 95.879697 377.208268 0.710451 508.426472-60.102574 512.50157-61.920695 515.761649-61.983389 519.962137-60.165268 638.955044-5.308159 732.80772 78.513503 802.147104 189.293516 895.122066 337.815218 929.540984 501.258056 921.892335 674.857293 921.64156 680.437045 920.889235 685.954103 920.450378 691.659242 918.193399 691.78463 916.500666 691.972711 914.807933 692.035405 875.185428 692.662344 835.751002 695.922423 796.755435 702.56797 697.260312 719.620695 604.786901 754.917326 519.585974 809.084802 515.887037 811.467168 513.253896 811.655249 509.178796 809.21019 493.505337 799.618032 477.706491 789.963181 461.406091 781.248738 367.239945 730.842892 266.86711 701.690257 160.35028 694.166996 143.234862 693.038507 126.05675 692.348875 107.812844 691.471161L107.812844 691.471161 107.812844 691.471161ZM451.75124 295.684959C454.070914 298.380796 455.512871 300.386998 457.142911 302.079733 530.745478 375.744993 604.410738 449.347559 677.95061 523.012817 686.100808 531.163017 695.191416 536.053137 706.915163 534.423096 719.140461 532.604976 727.729518 525.834041 732.118087 514.361068 736.506654 502.762709 734.186983 492.16745 726.412948 482.700681 724.782908 480.757171 722.839399 478.876356 720.958583 477.058236 639.832756 395.995103 558.644237 314.681194 477.518409 233.61806 459.713358 215.875703 442.974104 215.875703 425.043665 233.806142 384.856915 273.80481 344.732858 313.866173 304.671495 353.99023 291.568483 367.155936 290.628075 385.776007 302.101048 398.502856 314.326346 411.982031 334.63915 412.546276 347.99294 399.443264 367.239947 380.509723 386.23618 361.388103 405.232412 342.329175 420.467016 327.157267 435.57623 311.922663 451.75124 295.684959L451.75124 295.684959 451.75124 295.684959Z"  horiz-adv-x="1024" />

    
    <glyph glyph-name="codev1" unicode="&#58924;" d="M986.944 643.84c-20.288 0-36.864 16.512-36.864 36.864 0 12.48-10.048 22.656-22.464 22.656l-831.296 0c-12.288 0-22.464-10.112-22.464-22.656 0-20.352-16.512-36.864-36.864-36.864-20.48 0-36.992 16.512-36.992 36.864 0 53.12 43.264 96.512 96.32 96.512l831.296 0c53.12 0 96.384-43.392 96.384-96.512 0-20.352-16.576-36.864-36.864-36.864L986.944 643.84zM927.616-9.28l-831.296 0c-53.056 0-96.32 43.136-96.32 96.384 0 20.352 16.512 36.864 36.992 36.864 20.352 0 36.864-16.512 36.864-36.864 0-12.352 10.112-22.528 22.464-22.528l831.296 0c12.352 0 22.464 10.112 22.464 22.528 0 20.352 16.576 36.864 36.864 36.864 20.48 0 37.056-16.512 37.056-36.864C1024 33.856 980.736-9.28 927.616-9.28L927.616-9.28zM129.088 226.496l0 39.616 58.176 0 0 231.872-64.704-21.888-3.2 41.28 90.304 30.976 21.376 0 0-282.24 46.976 0 0-39.616L129.088 226.496 129.088 226.496zM393.6 404.48c-9.6 12.352-14.528 29.376-14.528 48.768 0 54.528 42.24 95.104 103.744 95.104 60.8 0 104.128-36.992 104.128-97.856 0-45.376-21.888-78.656-72.064-121.856-17.6-14.848-42.304-38.4-64.064-62.528l141.056 0 0-39.616-214.912 0 0 21.504c32.768 36.352 76.928 80.64 111.744 112.768 37.888 34.24 53.44 59.776 53.44 89.28 0 35.136-23.552 57.6-59.968 57.6-36.224 0-58.176-22.848-58.176-51.264 0-12.352 3.776-24.128 11.776-36.224L393.6 404.48 393.6 404.48zM728.704 306.752c17.216-29.888 38.912-46.528 67.904-46.528 37.312 0 63.04 24.128 63.04 59.392 0 34.624-20.416 52.992-53.504 52.992l-22.912 0 0 39.36 22.4 0c27.904 0 45.504 14.976 45.504 47.104 0 29.888-21.376 48.512-52.992 48.512-27.136 0-48.576-16-65.152-49.6l-35.776 21.888c20.864 43.776 55.552 68.48 100.864 68.48 58.88 0 97.792-33.344 97.792-86.144 0-32.64-15.424-54.976-42.624-70.016 31.936-12.352 51.328-36.224 51.328-73.28 0-60.864-44.416-99.392-109.056-99.392-48.128 0-81.28 22.976-103.104 60.48L728.704 306.752 728.704 306.752zM728.704 306.752"  horiz-adv-x="1024" />

    
    <glyph glyph-name="community" unicode="&#58927;" d="M637.024 461.888c8.928 15.232 3.84 34.848-11.392 43.808-15.168 8.928-34.816 3.84-43.776-11.392-25.76-43.84-99.456-79.488-164.352-79.488-65.12 0-138.976 35.936-164.64 80.096-8.896 15.296-28.48 20.48-43.744 11.584-15.296-8.864-20.48-28.48-11.584-43.744 42.24-72.704 144.864-111.968 220-111.968C492.32 350.816 594.656 389.76 637.024 461.888zM704 192c52.928 0 96 43.072 96 96L800 704c0 52.928-43.072 96-96 96L128 800C75.072 800 32 756.928 32 704l0-416c0-52.928 43.072-96 96-96l0.416 0L128 32.096c-0.032-13.152 8-24.992 20.192-29.856C152.032 0.736 156.032 0 160 0c8.672 0 17.184 3.52 23.36 10.112L353.568 192 704 192zM192.512 219.776C192.672 221.216 193.344 222.496 193.344 224c0 17.696-14.336 32-32 32L128 256c-17.632 0-32 14.336-32 32L96 704c0 17.632 14.368 32 32 32l576 0c17.664 0 32-14.368 32-32l0-416c0-17.664-14.336-32-32-32L339.872 256c-0.224 0-0.416-0.128-0.64-0.128-3.136-0.032-6.144-0.896-9.184-1.856-0.928-0.32-1.952-0.288-2.816-0.672-2.688-1.12-5.024-3.072-7.392-4.96-0.864-0.704-1.984-1.152-2.752-1.984-0.224-0.256-0.544-0.32-0.768-0.576l-124.096-132.64L192.512 219.776zM895.808 607.584c-17.696 0-31.712-14.336-31.712-32s14.592-32 32.288-32c17.6 0 31.904-14.368 31.904-32l0-352c0-17.664-14.304-32-31.904-32L864 127.584c-17.696 0-32-14.304-32-32 0-0.096 0.032-0.16 0.032-0.224 0-0.256-0.128-0.448-0.128-0.672l-0.16-49.536-72.512 73.344c-6.272 6.368-14.592 9.472-22.912 9.44C736.224 127.936 736.128 128 736 128l-160 0c-17.696 0-32-14.304-32-32s14.304-32 32-32l147.136 0 117.632-119.008c6.112-6.176 14.368-9.504 22.752-9.504 4.096 0 8.192 0.768 12.128 2.368 11.968 4.896 19.84 16.576 19.872 29.536l0.32 96.192 0.576 0c52.864 0 95.904 43.072 95.904 96l0 352C992.288 564.544 949.248 607.584 895.808 607.584z"  horiz-adv-x="1024" />

    
    <glyph glyph-name="count" unicode="&#58931;" d="M33.651934-51.413717c-18.549471 0-33.630958 15.081487-33.630958 33.630958l0 808.411897c0 18.556635 15.081487 33.645284 33.630958 33.645284 18.556635 0 33.645284-15.08865 33.645284-33.645284l0-774.773775 923.04982 0c18.549471 0 33.630958-15.08865 33.630958-33.638121 0-18.549471-15.081487-33.630958-33.630958-33.630958L33.651934-51.413717zM142.599252 130.284531c-7.294127 0-14.253632 2.319835-20.123316 6.705726-14.85022 11.120268-17.893532 32.243355-6.779404 47.093575l220.624816 294.755164c6.42227 8.570189 16.244986 13.485129 26.963095 13.485129 6.705726 0 13.19451-1.977028 18.758226-5.728468L580.447415 352.989729l349.6054 278.503015c6.019087 4.796236 13.253862 7.331989 20.928658 7.331989 10.314926 0 19.906375-4.617158 26.328645-12.679787 5.601578-7.018857 8.121981-15.804964 7.123234-24.740474-1.006933-8.92016-5.436826-16.923438-12.462846-22.532179L603.069645 284.998195c-5.91471-4.728698-13.358239-7.324826-20.958334-7.324826-6.720052 0-13.217023 1.977028-18.787902 5.728468L371.011428 412.90533l-201.448058-269.127484C163.148263 135.200494 153.317361 130.284531 142.599252 130.284531z"  horiz-adv-x="1024" />

    
    <glyph glyph-name="count2" unicode="&#58932;" d="M992-64 96-64c-17.7 0-32 14.3-32 32l0 896c0 17.7-14.3 32-32 32l0 0c-17.7 0-32-14.3-32-32l0-928c0-35.3 28.7-64 64-64l928 0c17.7 0 32 14.3 32 32l0 0C1024-78.3 1009.7-64 992-64zM225 63.6 225 63.6c-17.7 0-32 14.3-32 32L193 417.3c0 17.7 14.3 32 32 32l0 0c17.7 0 32-14.3 32-32l0-321.7C257 77.9 242.7 63.6 225 63.6zM417.5 63.6 417.5 63.6c-17.7 0-32 14.3-32 32L385.5 544.9c0 17.7 14.3 32 32 32l0 0c17.7 0 32-14.3 32-32l0-449.3C449.5 77.9 435.2 63.6 417.5 63.6zM609.5 63.6 609.5 63.6c-17.7 0-32 14.3-32 32L577.5 224.4c0 17.7 14.3 32 32 32l0 0c17.7 0 32-14.3 32-32l0-128.8C641.5 77.9 627.2 63.6 609.5 63.6zM801.5 63.6 801.5 63.6c-17.7 0-32 14.3-32 32L769.5 735.4c0 17.7 14.3 32 32 32l0 0c17.7 0 32-14.3 32-32l0-639.8C833.5 77.9 819.1 63.6 801.5 63.6z"  horiz-adv-x="1024" />

    
    <glyph glyph-name="count3" unicode="&#58934;" d="M534.75392 895.36l-20.468 0 0-468.719c0-7.685 2.558-12.805 7.676-17.929 5.114-5.119 12.792-7.685 17.912-7.685l483.583 0 0 20.494C1026.01392 687.896 808.53092 895.36 534.75392 895.36L534.75392 895.36zM555.22192 442.01 555.22192 854.376C790.62092 844.132 972.28292 667.403 982.52092 442.01L555.22192 442.01 555.22192 442.01zM486.14292-126.6c271.214 0 493.818 212.59 493.818 476.405l0 20.489L481.02292 370.294 481.02292 854.377l-20.466 0C207.24692 854.376-0.00208 628.986-0.00208 352.365-0.00208 83.428 214.92192-126.6 486.14292-126.6L486.14292-126.6zM437.52492 810.835l0-458.469c0-7.684 2.563-12.805 7.677-17.928 5.118-5.124 12.795-7.687 17.91-7.687l473.35 0c-10.235-227.958-209.807-412.368-450.32-412.368-248.19 0-445.205 192.095-445.205 437.982C40.93792 598.251 217.47992 800.591 437.52492 810.835L437.52492 810.835z"  horiz-adv-x="1025" />

    
    <glyph glyph-name="count4" unicode="&#58935;" d="M92.161024-63.998976l839.68 0c15.552512 0 28.16 12.608512 28.16 28.16s-12.608512 28.16-28.16 28.16l-811.52 0 0 811.52c0 15.552512-12.608512 28.16-28.16 28.16s-28.16-12.608512-28.16-28.16l0-839.68C64.001024-51.391488 76.608512-63.998976 92.161024-63.998976zM227.963904 155.165696c32.945152 0 59.646976 30.339072 59.646976 67.757056 0 9.02656-1.56672 17.634304-4.386816 25.509888l117.758976 153.7536c5.638144-2.00704 11.634688-3.09248 17.854464-3.09248 17.381376 0 33.01888 8.449024 43.91936 21.921792l111.181824-63.333376c0.359424-37.067776 26.919936-67.002368 59.629568-67.002368 32.945152 0 59.648 30.340096 59.648 67.75808 0 1.2544-0.034816 2.496512-0.094208 3.73248l154.882048 151.143424c7.387136-3.723264 15.553536-5.807104 24.154112-5.807104 32.946176 0 59.648 30.332928 59.648 67.75808 0 37.419008-26.701824 67.757056-59.648 67.757056-32.932864 0-59.646976-30.338048-59.646976-67.757056 0-7.71072 1.149952-15.112192 3.238912-22.017024l-145.00864-141.837312c-10.196992 9.245696-23.110656 14.78656-37.173248 14.78656-16.21504 0-30.912512-7.364608-41.665536-19.29728l-113.573888 64.602112c-2.105344 35.248128-27.923456 63.108096-59.491328 63.108096-32.934912 0-59.648-30.339072-59.648-67.75808 0-10.267648 2.0224-19.995648 5.62176-28.717056L248.922112 286.368768c-6.520832 2.78016-13.581312 4.312064-20.958208 4.312064-32.934912 0-59.648-30.338048-59.648-67.75808C168.315904 185.504768 195.028992 155.165696 227.963904 155.165696z"  horiz-adv-x="1024" />

    
    <glyph glyph-name="count5" unicode="&#58936;" d="M512-64c-247.04 0-448 201.024-448 448 0 181.312 108.096 343.616 275.392 413.504 16.192 6.656 35.072-0.832 41.856-17.216 6.784-16.32-0.896-35.008-17.216-41.792C220.672 678.592 128 539.456 128 384c0-211.776 172.224-384 384-384 155.456 0 294.592 92.672 354.496 236.032 6.784 16.384 25.728 24 41.792 17.216 16.32-6.784 24-25.472 17.216-41.792C855.616 44.096 693.312-64 512-64zM928 352 512 352C494.336 352 480 366.336 480 384L480 800C480 817.664 494.336 832 512 832c246.976 0 448-201.024 448-448C960 366.336 945.664 352 928 352zM544 416l350.656 0C879.232 602.24 730.24 751.232 544 766.656L544 416z"  horiz-adv-x="1024" />

    
    <glyph glyph-name="countdown" unicode="&#58937;" d="M576 736l-128 0c-17.664 0-32 14.336-32 32s14.336 32 32 32l128 0c17.696 0 32-14.336 32-32S593.696 736 576 736zM818.976 549.728l35.648 35.648c12.512 12.512 12.512 32.736 0 45.248s-32.736 12.512-45.248 0l-32.896-32.896C707.52 663.392 614.496 704 512 704 300.256 704 128 531.744 128 320c0-211.744 172.256-384 384-384 211.744 0 384 172.256 384 384C896 406.176 867.104 485.568 818.976 549.728zM544 1.632 544 32c0 17.696-14.336 32-32 32s-32-14.304-32-32l0-30.368C329.056 16.672 208.672 137.056 193.632 288L224 288c17.664 0 32 14.304 32 32s-14.336 32-32 32L193.632 352C208.672 502.944 329.056 623.328 480 638.368L480 608c0-17.664 14.336-32 32-32s32 14.336 32 32L544 638.368c150.944-15.072 271.328-135.424 286.368-286.368L800 352c-17.696 0-32-14.304-32-32s14.304-32 32-32l30.368 0C815.328 137.056 694.944 16.672 544 1.632zM652 472.992l-160-128c-13.824-11.072-16.032-31.2-4.992-44.992C493.344 292.096 502.624 288 512 288c7.008 0 14.08 2.272 19.968 7.008l160 128c13.792 11.04 16.032 31.168 4.992 44.96C685.952 481.792 665.856 484.064 652 472.992z"  horiz-adv-x="1024" />

    
    <glyph glyph-name="creative" unicode="&#58938;" d="M576-92.8l-128 0c-70.592 0-128 57.408-128 128l0 55.68c0 44.512-26.4 112.32-56.48 145.12C260.64 239.2 192 315.296 192 426.304c0 176.448 143.552 320 320 320 176.448 0 320-143.552 320-320 0-111.04-68.64-187.136-71.52-190.304C730.368 203.232 704 135.392 704 90.88l0-55.68C704-35.392 646.592-92.8 576-92.8zM512 682.304c-141.152 0-256-114.848-256-256 0-86.4 54.144-146.464 54.72-147.072 41.088-44.8 73.28-127.552 73.28-188.384l0-55.68c0-35.296 28.704-64 64-64l128 0c35.296 0 64 28.704 64 64l0 55.68c0 60.832 32.192 143.552 73.28 188.384 0.48 0.544 54.72 61.6 54.72 147.072C768 567.456 653.152 682.304 512 682.304zM640 320c-13.408 0-25.888 8.48-30.336 21.888l-15.648 46.88-59.36-59.392c-12.512-12.512-32.736-12.512-45.248 0l-59.392 59.392-15.616-46.88c-5.6-16.736-23.68-25.888-40.48-20.224-16.768 5.568-25.824 23.68-20.224 40.48l32 96c3.52 10.528 12.224 18.464 23.008 21.024 10.752 2.56 22.144-0.672 29.984-8.512L512 397.248l73.376 73.376c7.808 7.84 19.168 11.04 29.984 8.512 10.816-2.56 19.488-10.496 23.008-21.024l32-96c5.6-16.768-3.456-34.912-20.224-40.48C646.752 320.544 643.328 320 640 320zM863.68 639.68c-8.736 0-17.44 3.552-23.744 10.56-11.84 13.12-10.816 33.344 2.304 45.216l32.512 29.312c13.088 11.84 33.312 10.816 45.184-2.336 11.84-13.12 10.816-33.344-2.304-45.216L885.12 647.936C879.008 642.4 871.328 639.68 863.68 639.68zM160.352 639.68c-7.648 0-15.296 2.72-21.408 8.224L106.432 677.248c-13.12 11.84-14.144 32.064-2.336 45.216s32.032 14.176 45.216 2.336l32.512-29.312c13.12-11.84 14.144-32.064 2.336-45.216C177.824 643.264 169.12 639.68 160.352 639.68zM512 768c-17.664 0-32 14.336-32 32L480 832c0 17.664 14.336 32 32 32s32-14.336 32-32l0-32C544 782.336 529.664 768 512 768zM576 32l-128 0c-17.664 0-32 14.304-32 32s14.336 32 32 32l128 0c17.696 0 32-14.304 32-32S593.696 32 576 32z"  horiz-adv-x="1024" />

    
    <glyph glyph-name="cut" unicode="&#58940;" d="M786.112 287.648c-70.56 0-131.392-41.888-159.424-102.016l-71.296 144.576 240.864 454.784c8.288 15.616 2.304 34.976-13.312 43.264-15.584 8.288-34.976 2.336-43.264-13.312l-219.264-413.984L316.704 814.144C308.864 830.016 289.664 836.512 273.856 828.704 257.984 820.864 251.488 801.696 259.296 785.856l224.224-454.592-80.224-151.456c-26.656 63.328-89.344 107.872-162.24 107.872-97.056 0-176.032-78.976-176.032-176 0-97.056 78.976-176.032 176.032-176.032 71.456 0 132.96 42.88 160.512 104.224 0.032 0.096 0.096 0.128 0.16 0.224l116.736 220.416 100.896-204.544c23.328-69.824 89.216-120.32 166.784-120.32 97.056 0 176.032 78.976 176.032 176.032C962.144 208.672 883.2 287.648 786.112 287.648zM241.056-0.384c-61.792 0-112.032 50.24-112.032 112.032 0 61.76 50.24 112 112.032 112 61.728 0 111.968-50.24 111.968-112C353.024 49.888 302.784-0.384 241.056-0.384zM786.112-0.384c-37.504 0-70.56 18.688-90.912 47.136l-15.2 30.752c-3.488 10.848-5.888 22.176-5.888 34.144 0 61.76 50.208 112 111.968 112 61.792 0 112.032-50.24 112.032-112C898.144 49.888 847.904-0.384 786.112-0.384z"  horiz-adv-x="1024" />

    
    <glyph glyph-name="date" unicode="&#58942;" d="M1023.99488-127.99488C1023.99488-127.99488 107.788935-127.99488 107.788935-127.99488 48.262496-127.99488 0-79.732384 0-20.205945 0-20.205945 0 545.685963 0 545.685963 0 545.685963 0 599.580429 0 599.580429 0 599.580429 0 707.369364 0 707.369364 0 766.895804 48.262496 815.158299 107.788935 815.158299 107.788935 815.158299 188.630636 815.158299 188.630636 815.158299 188.630636 815.158299 188.630636 761.263832 188.630636 761.263832 188.630636 761.263832 107.788935 761.263832 107.788935 761.263832 78.012242 761.263832 53.894468 737.146057 53.894468 707.369364 53.894468 707.369364 53.894468 599.580429 53.894468 599.580429 53.894468 599.580429 1077.889348 599.580429 1077.889348 599.580429 1077.889348 599.580429 1077.889348 707.369364 1077.889348 707.369364 1077.889348 737.146057 1053.771573 761.263832 1023.99488 761.263832 1023.99488 761.263832 943.153179 761.263832 943.153179 761.263832 943.153179 761.263832 943.153179 815.158299 943.153179 815.158299 943.153179 815.158299 1023.99488 815.158299 1023.99488 815.158299 1083.521319 815.158299 1131.783815 766.895804 1131.783815 707.369364 1131.783815 707.369364 1131.783815 599.580429 1131.783815 599.580429 1131.783815 599.580429 1131.783815 545.685963 1131.783815 545.685963 1131.783815 545.685963 1131.783815-20.205945 1131.783815-20.205945 1131.783815-79.732384 1083.521319-127.99488 1023.99488-127.99488ZM1077.889348 545.685963C1077.889348 545.685963 53.894468 545.685963 53.894468 545.685963 53.894468 545.685963 53.894468-20.205945 53.894468-20.205945 53.894468-49.982638 78.012242-74.100412 107.788935-74.100412 107.788935-74.100412 1023.99488-74.100412 1023.99488-74.100412 1053.771573-74.100412 1077.889348-49.982638 1077.889348-20.205945 1077.889348-20.205945 1077.889348 545.685963 1077.889348 545.685963ZM794.943393 267.913877C794.943393 267.913877 791.359411 262.281906 791.359411 262.281906 788.044902 255.976253 784.27229 250.128703 780.122415 244.550625 780.122415 244.550625 646.733608 34.523886 646.733608 34.523886 646.733608 34.523886 589.120422 34.523886 589.120422 34.523886 589.120422 34.523886 687.477826 195.398871 687.477826 195.398871 687.370037 195.398871 687.262248 195.371924 687.154459 195.371924 620.190583 195.371924 565.891908 255.70678 565.891908 330.108092 565.891908 404.509404 620.190583 464.844261 687.154459 464.844261 754.118334 464.844261 808.417011 404.509404 808.417011 330.108092 808.417011 307.687995 803.027564 286.857783 794.296661 268.264192 794.296661 268.264192 794.943393 267.913877 794.943393 267.913877ZM687.154459 410.949793C649.940329 410.949793 619.786375 374.759659 619.786375 330.108092 619.786375 285.456527 649.940329 249.266392 687.154459 249.266392 706.206153 249.266392 723.317646 258.83266 735.578638 274.084794 735.578638 274.084794 745.360484 290.091451 745.360484 290.091451 751.019403 301.921286 754.522543 315.475745 754.522543 330.108092 754.522543 374.759659 724.368589 410.949793 687.154459 410.949793ZM376.937904 389.06864C376.937904 389.06864 296.203993 316.742264 296.203993 316.742264 296.203993 316.742264 296.203993 383.733087 296.203993 383.733087 296.203993 383.733087 378.608633 464.143633 378.608633 464.143633 378.608633 464.143633 430.670689 464.143633 430.670689 464.143633 430.670689 464.143633 430.670689 34.416097 430.670689 34.416097 430.670689 34.416097 376.937904 34.416097 376.937904 34.416097 376.937904 34.416097 376.937904 389.06864 376.937904 389.06864ZM889.258712 680.422131C874.383839 680.422131 862.311477 692.494492 862.311477 707.369364 862.311477 707.369364 862.311477 869.052767 862.311477 869.052767 862.311477 883.927639 874.383839 896 889.258712 896 904.133584 896 916.205945 883.927639 916.205945 869.052767 916.205945 869.052767 916.205945 707.369364 916.205945 707.369364 916.205945 692.494492 904.133584 680.422131 889.258712 680.422131ZM296.419571 815.158299C296.419571 815.158299 835.364244 815.158299 835.364244 815.158299 835.364244 815.158299 835.364244 761.263832 835.364244 761.263832 835.364244 761.263832 296.419571 761.263832 296.419571 761.263832 296.419571 761.263832 296.419571 815.158299 296.419571 815.158299ZM242.525103 680.422131C227.65023 680.422131 215.577869 692.494492 215.577869 707.369364 215.577869 707.369364 215.577869 869.052767 215.577869 869.052767 215.577869 883.927639 227.65023 896 242.525103 896 257.399976 896 269.472337 883.927639 269.472337 869.052767 269.472337 869.052767 269.472337 707.369364 269.472337 707.369364 269.472337 692.494492 257.399976 680.422131 242.525103 680.422131Z"  horiz-adv-x="1132" />

    
    <glyph glyph-name="delete" unicode="&#58943;" d="M608 128c-17.696 0-32 14.304-32 32L576 512c0 17.696 14.304 32 32 32s32-14.304 32-32l0-352C640 142.304 625.696 128 608 128zM416 128c-17.696 0-32 14.304-32 32L384 512c0 17.696 14.304 32 32 32s32-14.304 32-32l0-352C448 142.304 433.696 128 416 128zM928 672l-160 0L768 736c0 52.928-42.72 96-95.264 96L352 832C299.072 832 256 788.928 256 736l0-64L96 672C78.304 672 64 657.696 64 640s14.304-32 32-32l832 0c17.696 0 32 14.304 32 32S945.696 672 928 672zM320 736c0 17.632 14.368 32 32 32l320.736 0C690.272 768 704 753.952 704 736l0-64L320 672 320 736zM736.128-64 288.064-64c-52.928 0-96 43.072-96 96L192.064 512.48c0 17.664 14.336 32 32 32s32-14.336 32-32L256.064 32c0-17.664 14.368-32 32-32l448.064 0c17.664 0 32 14.336 32 32L768.128 511.168c0 17.664 14.304 32 32 32s32-14.336 32-32L832.128 32C832.128-20.928 789.056-64 736.128-64z"  horiz-adv-x="1024" />

    
    <glyph glyph-name="down" unicode="&#58945;" d="M792.832 410.144c-12.512 12.544-32.8 12.48-45.248 0.032L544 207.008 544 768c0 17.664-14.336 32-32 32s-32-14.336-32-32l0-563.04-234.048 235.456c-12.48 12.576-32.704 12.64-45.248 0.128-12.544-12.448-12.608-32.704-0.128-45.248l287.52-289.248c3.168-3.2 6.88-5.536 10.816-7.136C502.912 97.12 507.296 96 512 96c11.296 0 20.704 6.176 26.4 14.976l254.368 253.952C805.312 377.376 805.312 397.632 792.832 410.144zM864-32 160-32c-17.664 0-32 14.304-32 32s14.336 32 32 32l704 0c17.696 0 32-14.304 32-32S881.696-32 864-32z"  horiz-adv-x="1024" />

    
    <glyph glyph-name="edit" unicode="&#58946;" d="M815.530015-63.469288 195.138352-63.469288c-32.114418 0-65.541739 14.130835-90.841961 39.431058-25.299199 25.300222-40.307008 57.850569-40.307008 89.964988L63.989383 710.780555c0 33.147958 15.633049 63.797002 43.11496 85.248569 24.100908 18.813484 55.6873 29.753651 88.035032 29.753651l336.698438 0c16.888645 0 30.579459-13.81054 30.579459-30.699186s-13.690814-30.699186-30.579459-30.699186L195.138352 764.384403c-33.180703 0-69.750597-21.060665-69.750597-53.603849l0-644.85482c0-33.530674 36.220946-67.997674 69.750597-67.997674l620.391662 0c32.54216 0 51.754734 34.81697 51.754734 67.997674L867.284749 398.546298c0 16.888645 13.81054 30.579459 30.699186 30.579459s30.699186-13.690814 30.699186-30.579459l0-332.620563c0-32.347732-10.015098-63.056128-28.827559-87.158059C878.403994-48.714236 848.678996-63.469288 815.530015-63.469288zM488.650199 345.786677c-9.912767 0-19.826558 3.78214-27.389814 11.346419-15.126512 15.126512-15.126512 39.650045 0 54.776557L870.335225 820.983469c15.126512 15.126512 39.652092 15.126512 54.778604 0s15.126512-39.650045 0-54.776557L516.03899 357.133096C508.475733 349.568816 498.561943 345.786677 488.650199 345.786677z"  horiz-adv-x="1024" />

    
    <glyph glyph-name="exit" unicode="&#58951;" d="M918.4 406.4l-160 160c-12.8 12.8-32 12.8-44.8 0-12.8-12.8-12.8-32 0-44.8l105.6-105.6L512 416c-19.2 0-32-12.8-32-32s12.8-32 32-32l307.2 0-105.6-105.6c-12.8-12.8-12.8-32 0-44.8 6.4-6.4 12.8-9.6 22.4-9.6 9.6 0 16 3.2 22.4 9.6l160 163.2c0 0 0 3.2 3.2 3.2C931.2 377.6 931.2 396.8 918.4 406.4zM832 160c-19.2 0-32-12.8-32-32l0-64c0-19.2-12.8-32-32-32L224 32c-19.2 0-32 12.8-32 32L192 704c0 19.2 12.8 32 32 32l544 0c19.2 0 32-12.8 32-32l0-64c0-19.2 12.8-32 32-32s32 12.8 32 32L864 704c0 54.4-41.6 96-96 96L224 800C169.6 800 128 758.4 128 704l0-640c0-54.4 41.6-96 96-96l544 0c54.4 0 96 41.6 96 96l0 64C864 147.2 851.2 160 832 160z"  horiz-adv-x="1024" />

    
    <glyph glyph-name="fenxiao" unicode="&#58955;" d="M899.761542 172.29709c-19.197205 58.75102-49.323309 109.178476-89.660976 150.006306-34.140531 34.555992-75.46057 62.157603-122.811971 82.041446-58.181039 24.430388-110.962097 31.065499-136.538586 32.857306l0 47.856913c0 1.306761-0.091074 2.592032-0.249686 3.855814 80.979255 14.174823 142.723443 84.994705 142.723443 169.97099 0 95.148962-77.409967 172.558928-172.560975 172.558928-95.148962 0-172.558928-77.408943-172.558928-172.558928 0-84.55673 61.135321-155.098272 141.525152-169.758142-0.177032-1.332343-0.277316-2.688223-0.277316-4.068661l0-47.822121c-25.374898-1.737572-78.481367-8.293888-137.064565-32.893122-47.352424-19.88282-88.672463-47.485453-122.812994-82.041446-40.415438-40.906624-70.579405-91.450737-89.771493-150.349113-57.056427-12.192681-99.975892-62.991597-99.975892-123.633685 0-69.709595 56.713619-126.422191 126.424238-126.422191s126.424238 56.712596 126.424238 126.422191c0 56.629708-37.424317 104.68105-88.839262 120.722382 31.308022 83.117963 88.484175 142.881032 170.290261 177.83202 48.219163 20.600156 92.818896 26.857668 115.32547 28.757945l0-204.663082c-54.923859-13.752198-95.725083-63.521669-95.725083-122.648242 0-69.709595 56.713619-126.422191 126.424238-126.422191s126.424238 56.712596 126.424238 126.422191c0 59.126573-40.801224 108.896044-95.725083 122.648242l0 204.671268c22.197536-1.867532 65.29608-7.971547 112.767207-27.904509 83.037122-34.868101 140.951078-95.07733 172.486274-179.142874-50.699655-16.467027-87.456777-64.154071-87.456777-120.273151 0-69.709595 56.713619-126.422191 126.423215-126.422191 69.711642 0 126.425261 56.712596 126.425261 126.422191C1001.396212 109.546994 957.642753 160.741928 899.761542 172.29709zM231.177942 48.318552c0-35.854567-29.170337-65.023881-65.025927-65.023881s-65.025927 29.169314-65.025927 65.023881c0 35.856613 29.170337 65.027974 65.025927 65.027974S231.177942 84.175165 231.177942 48.318552zM409.502172 658.884841c0 61.293933 49.865661 111.160618 111.160618 111.160618 61.294957 0 111.162665-49.866685 111.162665-111.160618 0-61.293933-49.866685-111.160618-111.162665-111.160618C459.368857 547.724223 409.502172 597.590908 409.502172 658.884841zM585.076781 48.318552c0-35.854567-29.170337-65.023881-65.025927-65.023881s-65.025927 29.169314-65.025927 65.023881c0 35.856613 29.170337 65.027974 65.025927 65.027974S585.076781 84.175165 585.076781 48.318552zM874.969927-16.705329c-35.854567 0-65.024904 29.169314-65.024904 65.023881 0 35.856613 29.170337 65.027974 65.024904 65.027974 35.856613 0 65.026951-29.171361 65.026951-65.027974C939.997901 12.463985 910.826541-16.705329 874.969927-16.705329z"  horiz-adv-x="1024" />

    
    <glyph glyph-name="file" unicode="&#58956;" d="M869.006462 15.332453 165.670715 15.332453c-3.466961 0.642636-6.928806 1.357927-10.416234 1.918699-42.908252 6.864338-79.71146 40.74396-90.024339 82.942037-0.99056 4.059456-1.697665 8.188496-2.533706 12.289907L62.696436 652.608667c0.454348 2.176572 0.899486 4.353145 1.367137 6.522554 9.824763 45.260833 37.551244 74.27361 80.996732 88.787162 6.653537 2.222621 13.728676 3.199878 20.61041 4.751211l242.86433 0c3.989871-2.605338 8.575306-4.606925 11.865235-7.90504 31.887244-31.969109 63.582107-64.123436 95.226828-96.341209 2.934842-2.990101 5.861498-4.300956 10.120498-4.29277 105.524358 0.119727 211.045647 0.11154 316.568982 0.041956 6.932899-0.008186 13.921058-0.318248 20.793582-1.216711 45.231157-5.960759 84.711334-41.614793 95.39772-85.936231 1.052982-4.370541 1.868557-8.801457 2.793626-13.201673l0-433.275008c-0.638543-3.282766-1.238201-6.577812-1.915629-9.846252-8.582469-41.289382-32.04995-69.310575-73.013921-81.557504C880.707968 17.441487 874.795305 16.573723 869.006462 15.332453L869.006462 15.332453zM516.616646 58.874131 853.686545 58.874131c2.587941 0 5.180999 0.005117 7.774057 0.077771 11.299347 0.294712 21.698185 3.586688 30.825053 10.19213 18.267039 13.229303 25.568329 31.782867 25.568329 53.806463-0.021489 136.480394 0.01228 272.951579-0.095167 409.43402-0.004093 5.431709-0.532119 11.04966-1.938142 16.281825-8.157797 30.494525-37.551244 52.244898-70.28374 52.250014-110.416785 0.030699-220.832548 0.063445-331.240123-0.090051-8.711406-0.013303-15.503089 2.715855-21.578458 8.916067-31.621185 32.252565-63.402005 64.345494-95.252411 96.365768-1.602498 1.606591-4.383844 2.888793-6.613628 2.892887-71.39505 0.150426-142.794194-0.197498-214.18822 0.261966-35.032888 0.221034-71.059406-31.486108-70.861908-71.172993 0.839111-170.476673 0.355087-340.953346 0.355087-511.428995 0-1.462305 0.01842-2.914376 0-4.370541-0.110517-14.575973 4.979408-27.259854 14.426571-38.131459 15.152095-17.408485 34.498722-25.341155 57.498552-25.326828C290.923394 58.922227 403.772578 58.874131 516.616646 58.874131L516.616646 58.874131zM516.616646 58.874131"  horiz-adv-x="1024" />

    
    <glyph glyph-name="goode" unicode="&#58962;" d="M236.445386 855.960948c52.470568 0 101.790464-20.427141 138.881927-57.518604 37.087112-37.091463 57.50845-86.41136 57.491043-138.88773l0-183.153788c0-7.309499-5.927091-13.259799-13.219183-13.259799L236.445386 463.141027c-52.464765 0-101.790464 20.432943-138.88773 57.537462-37.091463 37.097266-57.518604 86.417162-57.518604 138.876125 0 52.464765 20.427141 101.784662 57.530209 138.881927C134.666527 835.533807 183.986423 855.960948 236.445386 855.960948M236.445386 896c-130.570074 0-236.445386-105.847751-236.445386-236.445386 0-130.570074 105.847751-236.445386 236.445386-236.445386L419.599174 423.109227c29.419318 0 53.258235 23.872281 53.258235 53.291599L472.857409 659.554614C472.890773 790.152249 367.043022 896 236.445386 896L236.445386 896 236.445386 896zM419.599174 304.857523c7.309499 0 13.252546-5.9503 13.252546-13.259799l0-183.153788c0-52.464765-20.427141-101.784662-57.530209-138.881927C338.224246-67.529455 288.904349-87.960948 236.445386-87.960948c-52.464765 0-101.790464 20.431492-138.88773 57.530209-37.091463 37.097266-57.518604 86.417162-57.518604 138.876125 0 52.464765 20.427141 101.790464 57.530209 138.88773 37.097266 37.091463 86.417162 57.524406 138.870323 57.524406L419.599174 304.857523M419.599174 344.890773 236.445386 344.890773c-130.570074 0-236.445386-105.847751-236.445386-236.445386 0-130.570074 105.847751-236.445386 236.445386-236.445386 130.570074 0 236.445386 105.853553 236.445386 236.445386L472.890773 291.599174C472.890773 321.018492 449.018492 344.890773 419.599174 344.890773L419.599174 344.890773 419.599174 344.890773zM787.582175 855.960948c52.453161 0 101.778859-20.427141 138.876125-57.518604s57.524406-86.405558 57.524406-138.860169c0-52.464765-20.427141-101.790464-57.530209-138.881927-37.091463-37.097266-86.41136-57.524406-138.870323-57.524406L604.424036 463.175841c-7.303696 0-13.248195 5.932893-13.248195 13.224985L591.175841 659.554614c0 52.464765 20.432943 101.790464 57.530209 138.88773C685.803315 835.533807 735.123212 855.960948 787.582175 855.960948M787.582175 896c-130.575877 0-236.445386-105.847751-236.445386-236.445386l0-183.153788c0-29.419318 23.838917-53.264038 53.285796-53.264038l183.15959 0c130.564272 0 236.439584 105.847751 236.439584 236.445386C1024.023209 790.152249 918.146447 896 787.582175 896L787.582175 896 787.582175 896zM787.582175 304.857523c52.453161 0 101.773057-20.432943 138.870323-57.536011 37.103068-37.097266 57.530209-86.422965 57.530209-138.876125 0-52.464765-20.427141-101.784662-57.530209-138.881927-37.091463-37.097266-86.41136-57.524406-138.870323-57.524406-52.464765 0-101.790464 20.431492-138.88773 57.530209-37.091463 37.097266-57.518604 86.417162-57.518604 138.876125L591.175841 291.599174c0 7.309499 5.944498 13.259799 13.253997 13.259799L787.582175 304.858973M787.582175 344.890773 604.424036 344.890773c-29.419318 0-53.285796-23.844719-53.285796-53.291599l0-183.153788c0-130.570074 105.841949-236.445386 236.445386-236.445386 130.564272 0 236.439584 105.853553 236.439584 236.445386C1024.023209 239.021263 918.146447 344.890773 787.582175 344.890773L787.582175 344.890773 787.582175 344.890773zM787.582175 344.890773"  horiz-adv-x="1025" />

    
    <glyph glyph-name="list" unicode="&#58977;" d="M896 640l-288 0c-17.696 0-32 14.336-32 32s14.304 32 32 32l288 0c17.696 0 32-14.336 32-32S913.696 640 896 640zM896 480l-288 0c-17.696 0-32 14.336-32 32s14.304 32 32 32l288 0c17.696 0 32-14.336 32-32S913.696 480 896 480zM896 224l-288 0c-17.696 0-32 14.304-32 32s14.304 32 32 32l288 0c17.696 0 32-14.304 32-32S913.696 224 896 224zM896 64l-288 0c-17.696 0-32 14.304-32 32s14.304 32 32 32l288 0c17.696 0 32-14.304 32-32S913.696 64 896 64zM384 416 192 416c-52.928 0-96 43.072-96 96L96 704c0 52.928 43.072 96 96 96l192 0c52.928 0 96-43.072 96-96l0-192C480 459.072 436.928 416 384 416zM192 736C174.368 736 160 721.632 160 704l0-192c0-17.632 14.368-32 32-32l192 0c17.632 0 32 14.368 32 32L416 704c0 17.632-14.368 32-32 32L192 736zM384-32 192-32c-52.928 0-96 43.072-96 96l0 192c0 52.928 43.072 96 96 96l192 0c52.928 0 96-43.072 96-96l0-192C480 11.072 436.928-32 384-32zM192 288c-17.632 0-32-14.336-32-32l0-192c0-17.664 14.368-32 32-32l192 0c17.632 0 32 14.336 32 32l0 192c0 17.664-14.368 32-32 32L192 288z"  horiz-adv-x="1024" />

    
    <glyph glyph-name="list1" unicode="&#58978;" d="M94.785 675.78l-55.637 0c-15.379 0-27.883 12.482-27.883 27.859 0 15.359 12.503 27.779 27.883 27.779l55.637 0c15.379 0 27.756-12.419 27.756-27.779 0-15.379-12.378-27.859-27.756-27.859l0 0zM984.989 675.78l-667.652 0c-15.379 0-27.883 12.482-27.883 27.859 0 15.359 12.503 27.779 27.883 27.779l667.652 0c15.276 0 27.756-12.419 27.756-27.779 0-15.379-12.482-27.859-27.756-27.859l0 0zM94.785 341.952l-55.637 0c-15.379 0-27.883 12.482-27.883 27.859 0 15.359 12.503 27.779 27.883 27.779l55.637 0c15.379 0 27.756-12.419 27.756-27.779 0-15.379-12.378-27.859-27.756-27.859l0 0zM984.989 341.952l-667.652 0c-15.379 0-27.883 12.482-27.883 27.859 0 15.359 12.503 27.779 27.883 27.779l667.652 0c15.276 0 27.756-12.419 27.756-27.779 0-15.379-12.482-27.859-27.756-27.859l0 0zM94.785 8.125l-55.637 0c-15.379 0-27.883 12.482-27.883 27.859 0 15.359 12.503 27.779 27.883 27.779l55.637 0c15.379 0 27.756-12.419 27.756-27.779 0-15.379-12.378-27.859-27.756-27.859l0 0zM984.989 8.125l-667.652 0c-15.379 0-27.883 12.482-27.883 27.859 0 15.359 12.503 27.779 27.883 27.779l667.652 0c15.276 0 27.756-12.419 27.756-27.779 0-15.379-12.482-27.859-27.756-27.859l0 0z"  horiz-adv-x="1024" />

    
    <glyph glyph-name="list2" unicode="&#58979;" d="M271.116791 607.061308l684.107823 0c17.165961 0 31.132044 13.966083 31.132044 31.132044 0 17.163915-13.966083 31.126928-31.132044 31.126928l-684.107823 0c-17.165961 0-31.132044-13.964036-31.132044-31.126928C239.984746 621.027391 253.950829 607.061308 271.116791 607.061308zM114.000404 714.547345c-20.098757 0-39.776935-8.151657-53.992705-22.364357-14.2127-14.214746-22.364357-33.893948-22.364357-53.991682 0-20.100804 8.151657-39.780005 22.364357-53.991682 14.208607-14.213723 33.888831-22.36538 53.993728-22.36538 20.10592 0 39.788192 8.15268 53.991682 22.363334 14.214746 14.207583 22.366404 33.886785 22.366404 53.993728 0 20.10592-8.15268 39.786145-22.364357 53.992705C153.779386 706.396711 134.099161 714.547345 114.000404 714.547345zM271.116791 352.870002l684.107823 0c17.165961 0 31.132044 13.966083 31.132044 31.132044 0 17.163915-13.966083 31.126928-31.132044 31.126928L271.116791 415.128975c-17.165961 0-31.132044-13.964036-31.132044-31.126928C239.984746 366.836085 253.950829 352.870002 271.116791 352.870002zM114.000404 460.357062c-20.098757 0-39.776935-8.151657-53.992705-22.364357-14.2127-14.214746-22.364357-33.893948-22.364357-53.991682 0-20.100804 8.151657-39.780005 22.364357-53.991682 14.208607-14.213723 33.888831-22.366404 53.993728-22.366404 20.10592 0 39.788192 8.15268 53.991682 22.363334 14.214746 14.207583 22.366404 33.886785 22.366404 53.993728 0 20.10592-8.15268 39.786145-22.364357 53.993728C153.779386 452.205405 134.099161 460.357062 114.000404 460.357062zM271.116791 98.679719l684.107823 0c17.165961 0 31.132044 13.966083 31.132044 31.132044 0 17.163915-13.966083 31.126928-31.132044 31.126928L271.116791 160.938692c-17.165961 0-31.132044-13.964036-31.132044-31.126928C239.984746 112.644779 253.950829 98.679719 271.116791 98.679719zM114.000404 206.165756c-20.098757 0-39.776935-8.151657-53.992705-22.364357-14.2127-14.214746-22.364357-33.893948-22.364357-53.991682 0-20.100804 8.151657-39.780005 22.364357-53.991682 14.208607-14.213723 33.888831-22.36538 53.993728-22.36538 20.10592 0 39.788192 8.15268 53.991682 22.363334 14.214746 14.207583 22.366404 33.886785 22.366404 53.993728 0 20.10592-8.15268 39.786145-22.364357 53.992705C153.779386 198.014098 134.099161 206.165756 114.000404 206.165756z"  horiz-adv-x="1024" />

    
    <glyph glyph-name="list3" unicode="&#58980;" d="M835.812352 703.906816l-633.102336 0.279552c-0.006144 0-0.01024 0-0.016384 0-19.785728 0-35.830784-16.03584-35.84-35.82464-0.008192-19.79392 16.029696-35.847168 35.823616-35.85536l633.102336-0.279552c0.006144 0 0.01024 0 0.016384 0 19.785728 0 35.830784 16.03584 35.84 35.82464C871.645184 687.844352 855.606272 703.8976 835.812352 703.906816zM835.812352 418.62144l-633.102336 0.279552c-0.006144 0-0.01024 0-0.016384 0-19.785728 0-35.830784-16.036864-35.84-35.823616-0.008192-19.79392 16.029696-35.847168 35.823616-35.856384l633.102336-0.279552c0.006144 0 0.01024 0 0.016384 0 19.785728 0 35.830784 16.036864 35.84 35.823616C871.645184 402.558976 855.606272 418.612224 835.812352 418.62144zM202.710016 133.614592c-0.006144 0-0.01024 0-0.016384 0-19.785728 0-35.831808-16.036864-35.84-35.823616-0.008192-19.79392 16.029696-35.847168 35.823616-35.856384l633.102336-0.279552c0.006144 0 0.01024 0 0.016384 0 19.785728 0 35.830784 16.036864 35.84 35.823616 0.008192 19.79392-16.03072 35.847168-35.823616 35.856384L202.710016 133.614592z"  horiz-adv-x="1024" />

    
    <glyph glyph-name="marketing" unicode="&#58987;" d="M70.641042 605.392333c0 15.342721 12.274178 28.639748 28.639748 28.639748l377.430952 0 0-184.112659-377.430952 0c-15.342721 0-28.639748 12.274178-28.639748 28.639748L70.641042 605.392333zM181.108637 785.413601c1.022848 8.182785 4.091393 17.388417 21.47981 29.662595 16.36557 11.251329 38.868229 12.274178 66.485128 6.137088 53.188101-13.297026 118.650381-58.302342 168.769938-116.604684l-214.798103 0C209.748384 716.882778 178.040093 756.773853 181.108637 785.413601L181.108637 785.413601zM476.71174 380.365749l0-437.77899-314.014369 0c-15.342721 0-28.639748 12.274178-28.639748 28.639748l0 381.522344c0 15.342721 12.274178 28.639748 28.639748 28.639748L476.71174 381.388598zM952.33611 605.392333l0-126.833166c0-15.342721-12.274178-28.639748-28.639748-28.639748l-377.430952 0 0 184.112659 377.430952 0C939.039086 634.032081 952.33611 621.757903 952.33611 605.392333L952.33611 605.392333zM585.133639 704.6086c50.119557 57.279494 115.581836 103.307658 168.769938 116.604684 27.616899 7.159936 50.119557 5.11424 66.485128-6.137088 17.388417-11.251329 20.456963-21.47981 21.47981-29.662595 3.068544-28.639748-27.616899-66.485128-41.936772-80.805001L585.133639 704.6086zM860.279781-57.41324l-314.014369 0 0 437.77899 314.014369 0c15.342721 0 28.639748-12.274178 28.639748-28.639748l0-381.522344C888.919528-45.139063 875.622502-57.41324 860.279781-57.41324L860.279781-57.41324zM923.696364 704.6086l-35.799684 0c18.411266 30.685444 26.594051 60.348038 23.525506 87.964937-2.045696 22.502658-13.297026 55.233798-52.165253 81.827849-32.731139 21.47981-75.69076 26.594051-121.718924 15.342721-75.69076-19.434114-165.701393-84.896394-225.026584-164.678546-59.325189 79.782152-149.335824 145.244432-225.026584 164.678546-47.051014 12.274178-88.987786 6.137088-121.718924-15.342721-39.891077-25.571202-50.119557-58.302342-52.165253-81.827849-2.045696-27.616899 5.11424-56.256646 23.525506-87.964937l-35.799684 0c-54.21095 0-98.193418-43.982468-98.193418-98.193418l0-126.833166c0-42.959621 28.639748-80.805001 69.553671-94.102025-4.091393-11.251329-6.137088-21.47981-6.137088-33.753987l0-381.522344c0-54.21095 43.982468-98.193418 98.193418-98.193418l697.582409 0c54.21095 0 98.193418 43.982468 98.193418 98.193418l0 381.522344c0 11.251329-2.045696 22.502658-6.137088 33.753987 40.913924 13.297026 69.553671 51.142405 69.553671 94.102025l0 126.833166C1021.889782 659.603283 977.907313 704.6086 923.696364 704.6086L923.696364 704.6086z"  horiz-adv-x="1024" />

    
    <glyph glyph-name="mobile" unicode="&#58989;" d="M736-96 288-96c-52.928 0-96 43.072-96 96L192 768c0 52.928 43.072 96 96 96l448 0c52.928 0 96-43.072 96-96l0-768C832-52.928 788.928-96 736-96zM288 800C270.368 800 256 785.632 256 768l0-768c0-17.664 14.368-32 32-32l448 0c17.664 0 32 14.336 32 32L768 768c0 17.632-14.336 32-32 32L288 800zM512-0.416c-35.296 0-64 28.704-64 64s28.704 64 64 64c35.296 0 64-28.704 64-64S547.296-0.416 512-0.416zM512.032 63.584c0 0-0.064 0-0.064-0.032L512 31.584 512.032 63.584zM704 160 320 160c-17.664 0-32 14.304-32 32L288 736c0 17.664 14.336 32 32 32l384 0c17.696 0 32-14.336 32-32l0-544C736 174.304 721.696 160 704 160zM352 224l320 0L672 704 352 704 352 224z"  horiz-adv-x="1024" />

    
    <glyph glyph-name="mobilefill" unicode="&#58990;" d="M512 31.584 512.032 63.584 511.968 63.552ZM736 832 288 832C252.672 832 224 803.328 224 768l0-768c0-35.328 28.672-64 64-64l448 0c35.328 0 64 28.672 64 64L800 768C800 803.328 771.328 832 736 832zM512-0.416c-35.296 0-64 28.704-64 64s28.704 64 64 64c35.296 0 64-28.704 64-64S547.296-0.416 512-0.416zM704 192 320 192 320 736l384 0L704 192z"  horiz-adv-x="1024" />

    
    <glyph glyph-name="more" unicode="&#58991;" d="M224 288c-52.928 0-96 43.072-96 96s43.072 96 96 96c52.928 0 96-43.072 96-96S276.928 288 224 288zM512 288c-52.928 0-96 43.072-96 96s43.072 96 96 96c52.928 0 96-43.072 96-96S564.928 288 512 288zM800 288c-52.928 0-96 43.072-96 96s43.072 96 96 96c52.928 0 96-43.072 96-96S852.928 288 800 288z"  horiz-adv-x="1024" />

    
    <glyph glyph-name="moreandroid" unicode="&#58992;" d="M417.696 672c0 52.928 43.072 96 96 96s96-43.072 96-96-43.072-96-96-96S417.696 619.072 417.696 672zM417.696 384c0 52.928 43.072 96 96 96s96-43.072 96-96-43.072-96-96-96S417.696 331.072 417.696 384zM417.696 96c0 52.928 43.072 96 96 96s96-43.072 96-96-43.072-96-96-96S417.696 43.072 417.696 96z"  horiz-adv-x="1024" />

    
    <glyph glyph-name="newshot" unicode="&#58994;" d="M768 764.8 259.2 764.8c-54.4 0-96-41.6-96-96L163.2 32c0-54.4 41.6-96 96-96 6.4 0 12.8 3.2 16 3.2l236.8 147.2 240-147.2c6.4-3.2 9.6-3.2 16-3.2 54.4 0 96 41.6 96 96L864 668.8C864 723.2 822.4 764.8 768 764.8zM800 32c0-16-9.6-28.8-25.6-32l-246.4 150.4c-6.4 3.2-9.6 3.2-16 3.2-6.4 0-12.8 0-16-3.2l-243.2-150.4c-12.8 3.2-25.6 16-25.6 32L227.2 668.8c0 19.2 12.8 32 32 32L768 700.8c19.2 0 32-12.8 32-32L800 32zM672 576 352 576c-19.2 0-32-12.8-32-32s12.8-32 32-32l320 0c19.2 0 32 12.8 32 32S691.2 576 672 576zM672 448 352 448c-19.2 0-32-12.8-32-32s12.8-32 32-32l320 0c19.2 0 32 12.8 32 32S691.2 448 672 448zM672 320 352 320c-19.2 0-32-12.8-32-32s12.8-32 32-32l320 0c19.2 0 32 12.8 32 32S691.2 320 672 320z"  horiz-adv-x="1024" />

    
    <glyph glyph-name="notice" unicode="&#58995;" d="M889.92 146.272c-1.184 1.632-119.232 166.144-119.232 287.392 0 168.448-76.16 254.784-162.688 287.008L608 736c0 52.928-43.072 96-96 96s-96-43.072-96-96l0-16.576c-10.784-7.904-16.096-21.792-11.808-35.232 5.376-16.832 23.424-26.048 40.224-20.736C462.176 669.12 481.344 672 501.312 672l21.376 0c115.232 0 184-89.088 184-238.304 0-108.032 72.896-235.392 110.176-293.504C759.488 114.016 633.824 64 512 64c-121.504 0-247.424 50.368-304.832 76.64 37.312 57.984 110.144 185.024 110.144 293.056 0 62.432 11.616 114.208 34.528 153.92 8.832 15.328 3.584 34.88-11.712 43.712-15.392 8.864-34.88 3.584-43.712-11.712-28.608-49.536-43.104-112.096-43.104-185.92 0-121.216-118.016-285.248-119.2-286.88-5.408-7.456-7.36-16.928-5.312-25.952 2.048-8.96 7.872-16.672 16-21.024 5.664-3.072 107.392-57.28 233.536-84.512C399.744-51.072 452.16-96 512-96s112.256 44.928 133.632 111.296c126.112 27.104 227.84 80.992 233.504 84.032 8.128 4.352 14.016 12.032 16.064 21.024S895.328 138.784 889.92 146.272zM501.312 736C494.048 736 487.104 735.008 480 734.432L480 736c0 17.632 14.368 32 32 32s32-14.368 32-32l0-0.928C536.832 735.68 529.728 736 522.688 736L501.312 736zM512-32c-22.336 0-43.136 13.408-57.984 35.296C473.216 1.28 492.608 0 512 0s38.784 1.28 57.984 3.296C555.136-18.624 534.304-32 512-32z"  horiz-adv-x="1024" />

    
    <glyph glyph-name="optadd" unicode="&#58996;" d="M863.328 413.44l-317.344 1.12L545.984 733.184c0 17.664-14.336 32-32 32s-32-14.336-32-32l0-318.4L159.616 415.936c-0.032 0-0.064 0-0.096 0-17.632 0-31.936-14.24-32-31.904C127.424 366.368 141.728 352 159.392 351.936l322.592-1.152 0-319.168c0-17.696 14.336-32 32-32s32 14.304 32 32l0 318.944 317.088-1.12c0.064 0 0.096 0 0.128 0 17.632 0 31.936 14.24 32 31.904C895.264 399.008 880.96 413.376 863.328 413.44z"  horiz-adv-x="1024" />

    
    <glyph glyph-name="optcheck" unicode="&#58997;" d="M887.904 597.792c-12.864 12.064-33.152 11.488-45.216-1.408L415.936 142.016l-233.12 229.696C170.208 384.128 149.952 384 137.536 371.392c-12.416-12.576-12.256-32.864 0.352-45.248l256.48-252.672c0.096-0.096 0.224-0.128 0.32-0.224 0.096-0.096 0.128-0.224 0.224-0.32 2.016-1.92 4.448-3.008 6.784-4.288 1.152-0.672 2.144-1.664 3.36-2.144 3.776-1.472 7.776-2.24 11.744-2.24 4.192 0 8.384 0.832 12.288 2.496 1.312 0.544 2.336 1.664 3.552 2.368 2.4 1.408 4.896 2.592 6.944 4.672 0.096 0.096 0.128 0.256 0.224 0.352 0.064 0.096 0.192 0.128 0.288 0.224l449.184 478.208C901.44 565.408 900.768 585.664 887.904 597.792z"  horiz-adv-x="1024" />

    
    <glyph glyph-name="optclose" unicode="&#58998;" d="M557.312 382.752l265.28 263.904c12.544 12.48 12.608 32.704 0.128 45.248-12.512 12.576-32.704 12.608-45.248 0.128l-265.344-263.936-263.04 263.84C236.64 704.416 216.384 704.48 203.84 692 191.328 679.52 191.296 659.264 203.776 646.72l262.976-263.776L201.6 119.2c-12.544-12.48-12.608-32.704-0.128-45.248 6.24-6.272 14.464-9.44 22.688-9.44 8.16 0 16.32 3.104 22.56 9.312l265.216 263.808 265.44-266.24c6.24-6.272 14.432-9.408 22.656-9.408 8.192 0 16.352 3.136 22.592 9.344 12.512 12.48 12.544 32.704 0.064 45.248L557.312 382.752z"  horiz-adv-x="1024" />

    
    <glyph glyph-name="optmove" unicode="&#58999;" d="M863.744 352 163.424 352c-17.664 0-32 14.336-32 32s14.336 32 32 32l700.32 0c17.696 0 32-14.336 32-32S881.44 352 863.744 352z"  horiz-adv-x="1024" />

    
    <glyph glyph-name="optroundadd" unicode="&#59000;" d="M512-62.016c-119.648 0-232.128 46.368-316.736 130.56C110.624 152.8 64 264.8 64 384c0 119.168 46.624 231.2 131.232 315.424 84.608 84.192 197.088 130.56 316.736 130.56s232.128-46.368 316.704-130.56c84.672-84.224 131.264-196.256 131.264-315.392 0.032-119.2-46.592-231.232-131.264-315.456C744.128-15.616 631.648-62.016 512-62.016zM512 766.016c-102.624 0-199.072-39.744-271.584-111.936C167.936 581.952 128 486.016 128 384c0-102.016 39.904-197.952 112.384-270.048 72.512-72.192 168.96-111.936 271.584-111.936 102.592 0 199.072 39.744 271.584 111.936 72.48 72.16 112.416 168.064 112.384 270.08 0 102.016-39.904 197.92-112.384 270.016C711.072 726.24 614.592 766.016 512 766.016zM736 416l-192 0L544 608c0 17.664-14.336 32-32 32s-32-14.336-32-32l0-192L288 416c-17.664 0-32-14.336-32-32s14.336-32 32-32l192 0 0-192c0-17.696 14.336-32 32-32s32 14.304 32 32l0 192 192 0c17.696 0 32 14.336 32 32S753.696 416 736 416z"  horiz-adv-x="1024" />

    
    <glyph glyph-name="optroundaddlight" unicode="&#59001;" d="M512-64.021333c-119.68 0-232.192 46.613333-316.8 131.221333C110.592 151.808 64 264.32 64 384c0 119.68 46.592 232.192 131.2 316.8C279.808 785.408 392.32 832 512 832c119.68 0 232.192-46.592 316.8-131.2 84.629333-84.608 131.221333-197.098667 131.221333-316.778667s-46.613333-232.170667-131.221333-316.8C744.192-17.408 631.68-64.021333 512-64.021333zM512 789.333333c-108.288 0-210.069333-42.154667-286.634667-118.698667S106.666667 492.288 106.666667 384c0-108.288 42.154667-210.090667 118.698667-286.634667 76.544-76.565333 178.346667-118.72 286.634667-118.72 108.288 0 210.090667 42.176 286.634667 118.72 76.565333 76.565333 118.72 178.346667 118.72 286.634667 0 108.266667-42.176 210.069333-118.72 286.613333C722.090667 747.178667 620.288 789.333333 512 789.333333zM725.312 405.333333l-191.637333 0L533.333333 597.354667C533.312 609.130667 523.776 618.666667 512 618.666667c0 0-0.021333 0-0.021333 0-11.797333-0.021333-21.333333-9.578667-21.312-21.354667L490.986667 405.333333l-190.549333 0c-11.776 0-21.333333-9.557333-21.333333-21.333333s9.557333-21.333333 21.333333-21.333333l190.613333 0 0.32-192.170667c0.021333-11.776 9.557333-21.290667 21.333333-21.290667 0 0 0.021333 0 0.021333 0 11.797333 0.021333 21.312 9.578667 21.312 21.376L533.738667 362.666667l191.573333 0c11.797333 0 21.333333 9.557333 21.333333 21.333333S737.109333 405.333333 725.312 405.333333z"  horiz-adv-x="1024" />

    
    <glyph glyph-name="optroundcheck" unicode="&#59002;" d="M512-64C264.96-64 64 136.96 64 384S264.96 832 512 832s448-200.96 448-448S759.04-64 512-64zM512 767.712C300.416 767.712 128.288 595.584 128.288 384c0-211.552 172.128-383.712 383.712-383.712 211.552 0 383.712 172.16 383.712 383.712C895.712 595.584 723.552 767.712 512 767.712zM726.976 502.816c-12.544 12.448-32.832 12.32-45.248-0.256l-233.28-235.84-103.264 106.112c-12.352 12.704-32.608 12.928-45.248 0.64-12.672-12.32-12.96-32.608-0.64-45.248l126.016-129.504c0.064-0.096 0.192-0.096 0.256-0.192 0.064-0.064 0.096-0.192 0.16-0.256 2.016-1.984 4.512-3.2 6.88-4.544 1.248-0.672 2.24-1.792 3.52-2.304 3.872-1.6 8-2.4 12.096-2.4 4.064 0 8.128 0.8 11.968 2.336 1.248 0.512 2.208 1.536 3.392 2.176 2.4 1.344 4.896 2.528 6.944 4.544 0.064 0.064 0.096 0.192 0.192 0.256 0.064 0.096 0.16 0.128 0.256 0.192l256.224 259.008C739.648 470.144 739.52 490.4 726.976 502.816z"  horiz-adv-x="1024" />

    
    <glyph glyph-name="optroundclose" unicode="&#59003;" d="M512-64C264.96-64 64 136.96 64 384S264.96 832 512 832s448-200.96 448-448S759.04-64 512-64zM512 767.712C300.416 767.712 128.288 595.584 128.288 384c0-211.552 172.128-383.712 383.712-383.712 211.552 0 383.712 172.16 383.712 383.712C895.712 595.584 723.552 767.712 512 767.712zM557.056 382.624l138.368 136.864c12.576 12.416 12.672 32.672 0.256 45.248-12.416 12.576-32.704 12.672-45.248 0.256l-138.56-137.024-136.448 136.864c-12.512 12.512-32.736 12.576-45.248 0.064-12.512-12.48-12.544-32.736-0.064-45.248l136.256-136.672-137.376-135.904c-12.576-12.448-12.672-32.672-0.256-45.248 6.272-6.336 14.496-9.504 22.752-9.504 8.128 0 16.256 3.104 22.496 9.248l137.568 136.064 138.688-139.136c6.24-6.272 14.432-9.408 22.656-9.408 8.192 0 16.352 3.136 22.592 9.344 12.512 12.48 12.544 32.704 0.064 45.248L557.056 382.624z"  horiz-adv-x="1024" />

    
    <glyph glyph-name="ordere" unicode="&#59006;" d="M781.840459 658.800876l-77.41469 0-0.046476 2.225485c-7.430795 36.850093-40.094474 64.615919-79.257641 64.615919l-16.05924 0c0 53.645799-43.501521 96.968566-97.106207 96.968566-53.57966 0-97.011467-43.322768-97.011467-96.968566l-16.087841 0c-39.093453 0-71.78037-27.765826-79.255854-64.615919l0.025026-2.225485-78.371022 0c-31.172873 0-56.514797-25.36695-56.514797-56.561273L184.74025 12.974173c0-31.158572 25.341924-56.493346 56.514797-56.493346l540.587199 0c31.172873 0 56.509434 25.334774 56.509434 56.493346L838.351681 602.239603C838.349893 633.433927 813.013331 658.800876 781.840459 658.800876zM511.954418 774.172145c26.838093 0 48.50484-21.740035 48.50484-48.529865 0-26.700453-21.666746-48.41725-48.50484-48.41725-26.766592 0-48.458364 21.716797-48.458364 48.41725C463.496054 752.432109 485.187826 774.172145 511.954418 774.172145zM793.983203 12.974173c0-6.701479-5.453778-12.124869-12.144532-12.124869l-540.587199 0c-6.694329 0-12.171345 5.42339-12.171345 12.124869L229.080127 602.239603c0 6.719355 5.477016 12.192796 12.171345 12.192796l78.592677 0 0.24668-50.463981 385.891885 0-0.845505 50.463981 76.701462 0c6.690754 0 12.144532-5.473441 12.144532-12.192796L793.983203 12.974173zM732.150481 394.550942 485.811677 394.550942c-12.264297 0-22.206583 9.901172-22.206583 22.160107 0 12.258935 9.944073 22.163682 22.206583 22.163682l246.338805 0c12.239272 0 22.160107-9.904747 22.160107-22.163682C754.310588 404.452114 744.387966 394.550942 732.150481 394.550942zM395.362261 356.680165l-75.764792 0c-12.257147 0-22.185132 9.927985-22.185132 22.161894l0 75.786243c0 12.235697 9.926198 22.161894 22.185132 22.161894l75.764792 0c12.26251 0 22.183345-9.926198 22.183345-22.161894l0-75.786243C417.547393 366.606363 407.624771 356.680165 395.362261 356.680165zM341.782601 401.027192l31.394527 0 0 31.419553-31.394527 0L341.782601 401.027192zM732.150481 249.03106 485.811677 249.03106c-12.264297 0-22.206583 9.92441-22.206583 22.20837 0 12.257147 9.944073 22.158319 22.206583 22.158319l246.338805 0c12.239272 0 22.160107-9.901172 22.160107-22.158319C754.310588 258.95547 744.387966 249.03106 732.150481 249.03106zM395.362261 211.13347l-75.764792 0c-12.257147 0-22.185132 9.927985-22.185132 22.185132l0 75.813056c0 12.25536 9.926198 22.183345 22.185132 22.183345l75.764792 0c12.26251 0 22.183345-9.927985 22.183345-22.183345l0-75.813056C417.547393 221.059668 407.624771 211.13347 395.362261 211.13347zM341.782601 255.505522l31.394527 0 0 31.441003-31.394527 0L341.782601 255.505522zM732.150481 102.177675 485.811677 102.177675c-12.264297 0-22.206583 9.926198-22.206583 22.185132 0 12.253572 9.944073 22.17977 22.206583 22.17977l246.338805 0c12.239272 0 22.160107-9.926198 22.160107-22.17977C754.310588 112.102085 744.387966 102.177675 732.150481 102.177675zM395.362261 64.306898l-75.764792 0c-12.257147 0-22.185132 9.922623-22.185132 22.206583l0 75.757642c0 12.267872 9.926198 22.185132 22.185132 22.185132l75.764792 0c12.26251 0 22.183345-9.91726 22.183345-22.185132l0-75.757642C417.547393 74.229521 407.624771 64.306898 395.362261 64.306898zM341.782601 108.67895l31.394527 0 0 31.415978-31.394527 0L341.782601 108.67895z"  horiz-adv-x="1024" />

    
    <glyph glyph-name="orderk" unicode="&#59007;" d="M192.477867 358.024533c0 89.931093-0.013653 179.8656 0.006827 269.796693 0.01024 38.884693 25.449813 69.321387 63.90784 74.871467 12.70784 1.83296 25.920853 1.324373 38.8096 0.447147 12.24704-0.832853 21.152427-12.75904 20.57216-25.2416-0.59392-12.77952-10.605227-23.063893-23.248213-23.49056-8.18176-0.27648-16.380587-0.02048-24.572587-0.085333-15.84128-0.12288-26.166613-10.513067-26.170027-26.463573-0.017067-179.8656-0.017067-359.7312 0-539.5968 0-16.165547 10.3936-26.620587 26.5728-26.624 163.310933-0.027307 326.62528-0.027307 489.936213-0.003413 16.674133 0.003413 26.801493 10.38336 26.815147 27.460267 0.044373 49.486507 0.017067 98.973013 0.017067 148.45952 0 129.35168-0.006827 258.706773 0.023893 388.058453 0 6.79936-0.826027 13.29152-5.14048 18.855253-4.90496 6.324907-11.421013 9.642667-19.39456 9.796267-8.188587 0.160427-16.380587 0-24.572587 0.07168-13.99808 0.126293-24.968533 10.786133-25.156267 24.357547-0.18432 13.533867 10.687147 24.941227 24.593067 24.777387 14.107307-0.167253 28.576427 0.535893 42.233173-2.290347 32.47104-6.724267 55.524693-35.918507 56.695467-69.041493 0.064853-1.87392 0.075093-3.754667 0.075093-5.632 0.003413-179.012267 0.034133-358.024533-0.027307-537.0368-0.01024-32.39936-14.47936-56.152747-43.680427-70.509227-9.61536-4.727467-20.00896-6.649173-30.733653-6.649173-164.338347 0-328.67328-0.03072-493.008213 0.023893-41.844053 0.013653-74.509653 32.846507-74.53696 74.8544C192.433493 177.476267 192.48128 267.752107 192.477867 358.024533zM513.580373 604.996267c-32.08192 0-64.16384-0.02048-96.24576 0.006827-31.235413 0.027307-51.923627 20.718933-51.974827 51.95776-0.023893 15.018667-0.054613 30.03392 0.006827 45.052587 0.12288 29.9008 21.0944 50.937173 50.8928 50.95424 64.846507 0.04096 129.693013 0.044373 194.53952-0.003413 29.45024-0.023893 50.670933-21.26848 50.732373-50.64704 0.034133-15.868587 0.068267-31.740587-0.01024-47.609173-0.136533-27.68896-20.97152-49.268053-48.626347-49.578667-33.102507-0.372053-66.208427-0.088747-99.314347-0.088747C513.580373 605.026987 513.580373 605.013333 513.580373 604.996267zM611.976533 703.238827c-65.908053 0-131.444053 0-196.908373 0 0-16.472747 0-32.566613 0-48.633173 65.80224 0 131.222187 0 196.908373 0C611.976533 670.836053 611.976533 686.7968 611.976533 703.238827zM630.042 395.361c-34.136-34.136-68.285-68.257-102.392-102.42-4.972-4.982-10.513-8.703-17.76-9.085-10.362-0.543-18.338 3.77-23.315 12.734-4.996 8.998-4.274 18.018 1.771 26.448 1.086 1.516 2.341 2.935 3.661 4.255 68.86 68.888 137.725 137.773 206.623 206.623 11.754 11.744 27.464 11.616 37.804-0.128 7.06-8.016 7.846-20.677 1.658-29.429-1.76-2.488-3.862-4.774-6.022-6.94-33.993-34.037-68.015-68.043-102.03-102.058zM513.079 163.932c-49.128 0-98.256-0.01-147.388 0.01-10.366 0.003-18.128 4.659-22.562 13.961-4.325 9.069-3.308 17.988 2.905 25.969 5.035 6.472 11.913 9.353 20.105 9.339 22.859-0.041 45.718-0.01 68.577-0.01 75.059 0 150.115 0.014 225.174-0.014 15.398-0.007 26.242-10.24 26.286-24.62 0.041-13.568-10.506-24.474-24.173-24.586-18.592-0.157-37.188-0.044-55.781-0.044-31.051-0.003-62.095-0.003-93.143-0.003zM440.443 379.976c23.158-23.158 46.394-46.244 69.446-69.509 11.681-11.793 9.454-30.062-4.412-38.69-9.633-5.993-21.949-4.499-30.502 3.977-15.51 15.37-30.903 30.855-46.341 46.297-30.879 30.879-61.812 61.706-92.608 92.67-12.608 12.676-9.085 32.989 6.736 40.261 9.548 4.388 20.206 2.404 28.186-5.542 23.204-23.117 46.336-46.308 69.494-69.466z"  horiz-adv-x="1024" />

    
    <glyph glyph-name="refresh" unicode="&#59008;" d="M939.456 639.776c-16.672 5.984-34.976-2.72-40.896-19.36l-24.768-69.344c-28.992 65.312-74.784 122.72-133.088 165.92C555.328 854.272 291.296 816.768 152.32 633.344c-67.264-88.768-95.616-198.176-79.84-308.032 15.84-110.304 74.208-207.776 164.352-274.496 75.424-55.808 163.808-82.752 251.456-82.752 128.032 0 254.56 57.44 336.992 166.272 36.48 48.128 61.472 102.08 74.208 160.416 3.776 17.248-7.136 34.304-24.416 38.08-17.216 3.712-34.304-7.104-38.08-24.416-10.784-49.184-31.872-94.752-62.72-135.456-117.888-155.52-341.92-187.232-499.392-70.72-76.288 56.48-125.664 138.912-139.072 232.16-13.344 92.8 10.656 185.248 67.488 260.288 117.856 155.584 341.792 187.424 499.328 70.848 57.024-42.24 99.84-100.608 122.976-166.624l-109.984 42.944c-16.416 6.368-35.008-1.696-41.44-18.176-6.432-16.48 1.728-35.008 18.176-41.44l161.856-63.2c3.808-1.472 7.744-2.208 11.616-2.208 0.544 0 1.024 0.192 1.568 0.224 1.216-0.128 2.432-0.64 3.648-0.64 13.12 0 25.472 8.16 30.112 21.248l57.632 161.184C964.768 615.52 956.096 633.856 939.456 639.776z"  horiz-adv-x="1024" />

    
    <glyph glyph-name="pay" unicode="&#59009;" d="M799.488-4.448 159.936-4.448c-52.928 0-96 43.072-96 96L63.936 670.048c0 52.928 43.072 96 96 96l642.496 0c52.928 0 96-43.072 96-96L898.432 576c0-17.664-14.304-32-32-32s-32 14.336-32 32L834.432 670.048c0 17.632-14.336 32-32 32L159.936 702.048c-17.632 0-32-14.368-32-32l0-578.496c0-17.664 14.368-32 32-32l639.552 0c17.664 0 32 14.336 32 32l0 98.944c0 17.696 14.304 32 32 32s32-14.304 32-32l0-98.944C895.488 38.624 852.448-4.448 799.488-4.448zM661.472 381.888m-31.328 0a0.979 0.979 0 1 0 62.656 0 0.979 0.979 0 1 0-62.656 0ZM896 256 576 256c-35.296 0-64 28.704-64 64l0 128c0 35.296 28.704 64 64 64l320 0c35.296 0 64-28.704 64-64l0-128C960 284.704 931.296 256 896 256zM576 448l0-128 320.064 0L896 448 576 448z"  horiz-adv-x="1024" />

    
    <glyph glyph-name="pic" unicode="&#59013;" d="M320 512m-64 0a2 2 0 1 0 128 0 2 2 0 1 0-128 0ZM842.688 0 181.312 0C116.64 0 64 52.64 64 117.312L64 650.688C64 715.36 116.64 768 181.312 768l661.376 0C907.36 768 960 715.36 960 650.688l0-533.376C960 52.64 907.36 0 842.688 0zM181.312 704C151.936 704 128 680.064 128 650.688l0-533.376C128 87.904 151.936 64 181.312 64l661.376 0C872.096 64 896 87.904 896 117.312L896 650.688C896 680.064 872.096 704 842.688 704L181.312 704zM224 127.008c-3.136 0-6.336 0.48-9.504 1.472-16.864 5.248-26.304 23.136-21.056 40 2.368 7.616 60.16 186.848 183.168 183.648 35.008-0.864 64.32-9.696 92.672-18.24 36.416-10.944 67.904-20.384 109.632-13.728 20.448 3.296 28.896 23.84 43.328 69.984 19.04 60.832 47.808 152.736 174.656 152.736 17.696 0 32-14.336 32-32s-14.304-32-32-32c-75.968 0-92.672-40.992-113.6-107.872-14.496-46.4-32.608-104.16-94.272-114.016-56.288-8.96-99.776 4.128-138.208 15.616-25.408 7.648-49.44 14.88-75.872 15.52-0.48 0.032-0.96 0.032-1.44 0.032-62.016 0-106.88-99.872-119.008-138.656C250.272 135.808 237.632 127.008 224 127.008z"  horiz-adv-x="1024" />

    
    <glyph glyph-name="piclight" unicode="&#59014;" d="M298.005333 445.909333c-47.061333 0-85.333333 38.272-85.333333 85.333333s38.272 85.333333 85.333333 85.333333 85.333333-38.272 85.333333-85.333333S345.045333 445.909333 298.005333 445.909333zM298.005333 573.909333c-23.530667 0-42.666667-19.136-42.666667-42.666667s19.136-42.666667 42.666667-42.666667 42.666667 19.136 42.666667 42.666667S321.536 573.909333 298.005333 573.909333zM191.317333 40.426667c-60.053333 0-106.645333 56.192-106.645333 104.512L84.672 616.682667c0 93.738667 51.264 106.645333 106.645333 106.645333l640.128 0c58.816 0 106.645333-47.850667 106.645333-106.645333l0-467.498667c0-58.816-47.829333-106.645333-106.645333-106.645333l-640.042667-2.133333C191.36 40.426667 191.338667 40.426667 191.317333 40.426667zM191.317333 680.661333c-42.048 0-63.978667-2.837333-63.978667-63.978667l0-471.744c0-27.84 29.525333-61.845333 63.978667-61.845333l640.064 2.133333c35.328 0 64.042667 28.714667 64.042667 63.978667L895.424 616.682667c0 35.285333-28.714667 63.978667-63.978667 63.978667L191.317333 680.661333zM214.869333 127.04c-2.304 0-4.650667 0.384-6.954667 1.173333-11.136 3.84-17.045333 15.957333-13.226667 27.114667 2.624 7.616 65.258667 186.474667 181.013333 184.021333 34.602667-0.874667 63.893333-11.114667 92.224-20.992 35.456-12.394667 68.992-24.128 112.042667-17.216 28.245333 4.522667 40.341333 33.792 57.728 81.173333 23.232 63.274667 55.04 149.909333 173.461333 149.909333 11.797333 0 21.333333-9.557333 21.333333-21.333333s-9.536-21.333333-21.333333-21.333333c-88.618667 0-110.378667-59.221333-133.397333-121.941333-18.026667-49.130667-36.672-99.904-91.050667-108.608-53.781333-8.597333-95.765333 6.101333-132.864 19.050667-26.389333 9.237333-51.328 17.941333-79.232 18.624-0.533333 0.021333-1.066667 0.021333-1.621333 0.021333-69.162667 0-123.008-111.808-138.005333-155.264C232 132.608 223.722667 127.04 214.869333 127.04z"  horiz-adv-x="1024" />

    
    <glyph glyph-name="piccamera" unicode="&#59015;" d="M512 160c-105.888 0-192 86.112-192 192s86.112 192 192 192 192-86.112 192-192S617.888 160 512 160zM512 480c-70.592 0-128-57.408-128-128 0-70.592 57.408-128 128-128 70.592 0 128 57.408 128 128C640 422.592 582.592 480 512 480zM864 0 160 0c-52.928 0-96 43.072-96 96L64 608c0 52.928 43.072 96 96 96l96 0c17.664 0 32-14.336 32-32S273.664 640 256 640L160 640C142.368 640 128 625.632 128 608l0-512c0-17.664 14.368-32 32-32l704 0c17.664 0 32 14.336 32 32L896 608c0 17.632-14.336 32-32 32L512 640c-17.664 0-32 14.336-32 32s14.336 32 32 32l352 0c52.928 0 96-43.072 96-96l0-512C960 43.072 916.928 0 864 0zM816 560m-48 0a1.5 1.5 0 1 0 96 0 1.5 1.5 0 1 0-96 0ZM480 768c0-17.664-14.336-32-32-32l-128 0C302.336 736 288 750.336 288 768l0 0c0 17.664 14.336 32 32 32l128 0C465.664 800 480 785.664 480 768L480 768z"  horiz-adv-x="1024" />

    
    <glyph glyph-name="piccameraadd" unicode="&#59016;" d="M480 544c-105.888 0-192-86.112-192-192s86.112-192 192-192 192 86.112 192 192S585.888 544 480 544zM480 224c-70.592 0-128 57.408-128 128 0 70.592 57.408 128 128 128 70.592 0 128-57.408 128-128C608 281.408 550.592 224 480 224zM576 64 160 64c-17.632 0-32 14.336-32 32L128 608c0 17.632 14.368 32 32 32l96 0c17.664 0 32 14.336 32 32S273.664 704 256 704L160 704C107.072 704 64 660.928 64 608l0-512c0-52.928 43.072-96 96-96l416 0c17.696 0 32 14.304 32 32S593.696 64 576 64zM512 640l320 0c17.664 0 32-14.368 32-32l0-256c0-17.696 14.304-32 32-32s32 14.304 32 32L928 608c0 52.928-43.072 96-96 96L512 704c-17.664 0-32-14.336-32-32S494.336 640 512 640zM784 560m-48 0a1.5 1.5 0 1 0 96 0 1.5 1.5 0 1 0-96 0ZM320 736l128 0c17.696 0 32 14.304 32 32s-14.304 32-32 32l-128 0C302.304 800 288 785.696 288 768S302.304 736 320 736zM960 128l-96 0 0 96c0 17.696-14.304 32-32 32s-32-14.304-32-32l0-96-96 0c-17.696 0-32-14.304-32-32s14.304-32 32-32l96 0 0-96c0-17.696 14.304-32 32-32s32 14.304 32 32l0 96 96 0c17.696 0 32 14.304 32 32S977.696 128 960 128z"  horiz-adv-x="1024" />

    
    <glyph glyph-name="piccamerarotate" unicode="&#59018;" d="M864.032 704 512 704c-17.664 0-32-14.336-32-32s14.336-32 32-32l352.032 0C881.696 640 896 625.632 896 608l0-512c0-17.664-14.304-32-31.968-32L160 64c-17.632 0-32 14.336-32 32L128 608c0 17.632 14.368 32 32 32l96 0c17.664 0 32 14.336 32 32S273.664 704 256 704L160 704C107.072 704 64 660.928 64 608l0-512c0-52.928 43.072-96 96-96l704.032 0C916.96 0 960 43.072 960 96L960 608C960 660.928 916.96 704 864.032 704zM320 736l128 0c17.696 0 32 14.304 32 32s-14.304 32-32 32l-128 0C302.304 800 288 785.696 288 768S302.304 736 320 736zM399.84 164.416c5.12-3.008 10.72-4.448 16.256-4.448 10.944 0 21.6 5.632 27.584 15.712 8.992 15.232 3.968 34.848-11.264 43.84-46.656 27.552-75.648 78.336-75.648 132.48s28.96 104.864 75.584 132.416c15.232 8.992 20.256 28.608 11.264 43.84-7.552 12.736-22.4 17.792-36 14.016l-158.048-32.576c-17.312-3.552-28.448-20.48-24.896-37.792 3.136-15.136 16.448-25.536 31.328-25.536 2.144 0 4.32 0.192 6.496 0.672l58.656 12.064C302.88 426.848 292.736 390.016 292.736 352 292.736 275.328 333.76 203.456 399.84 164.416zM621.728 540.672c-15.36 8.768-34.88 3.488-43.68-11.872-8.768-15.328-3.456-34.88 11.872-43.68 47.616-27.296 77.216-78.304 77.216-133.12 0-53.664-28.672-104.096-74.784-131.648-15.2-9.056-20.128-28.704-11.072-43.872 3.424-5.76 8.448-9.824 14.08-12.448 5.312-3.68 11.616-5.792 18.176-5.792 4.064 0 8.16 0.736 12.16 2.4l154.976 63.552c16.352 6.688 24.16 25.376 17.44 41.76-6.688 16.352-25.344 24.256-41.76 17.44l-43.648-17.92c11.776 27.008 18.4 56.352 18.4 86.496C731.136 429.728 689.216 502.016 621.728 540.672z"  horiz-adv-x="1024" />

    
    </font>
</defs>
</svg>
